<svg width="142" height="20" viewBox="0 0 142 20" fill="none" xmlns="http://www.w3.org/2000/svg">
<path d="M0.257037 6.40463V4.51975H2.18368H2.43368V4.26975V2.38488H4.36033H4.61033V2.13488V0.25H136.457V2.13488V2.38488H136.707H138.633V4.26975V4.51975H138.883H140.81V6.40463V7.7987V12.1313V13.5254V15.4102H138.883H138.633V15.6602V17.5451H136.707H136.457V17.7951V19.68H4.61033V17.7951V17.5451H4.36033H2.43368V15.6602V15.4102H2.18368H0.257037L0.25704 13.5254L0.257033 13.5241L0.25 12.1313V12.1307V7.79933V7.7987L0.257037 6.40589V6.40463Z" fill="#9A07F6" fill-opacity="0.13" stroke="#9A07F6" stroke-width="0.5"/>
<path d="M68.08 10.88C68.1147 11.0187 68.132 11.192 68.132 11.4C68.132 11.5993 68.1147 11.7727 68.08 11.92C68.1147 12.0587 68.132 12.232 68.132 12.44C68.132 12.6393 68.1147 12.8127 68.08 12.96H70.16C70.1947 13.0987 70.212 13.272 70.212 13.48C70.212 13.6793 70.1947 13.8527 70.16 14H67.04C67.0053 13.8527 66.988 13.6793 66.988 13.48C66.988 13.272 67.0053 13.0987 67.04 12.96C67.0053 12.8127 66.988 12.6393 66.988 12.44C66.988 12.232 67.0053 12.0587 67.04 11.92C67.0053 11.7727 66.988 11.5993 66.988 11.4C66.988 11.192 67.0053 11.0187 67.04 10.88C67.0053 10.7327 66.988 10.5593 66.988 10.36C66.988 10.152 67.0053 9.97867 67.04 9.84C67.0053 9.69267 66.988 9.51933 66.988 9.32C66.988 9.112 67.0053 8.93867 67.04 8.8C67.0053 8.65267 66.988 8.47933 66.988 8.28C66.988 8.072 67.0053 7.89867 67.04 7.76C67.0053 7.61267 66.988 7.43933 66.988 7.24C66.988 7.032 67.0053 6.85867 67.04 6.72H70.16C70.1947 6.85867 70.212 7.032 70.212 7.24C70.212 7.43933 70.1947 7.61267 70.16 7.76H68.08C68.1147 7.89867 68.132 8.072 68.132 8.28C68.132 8.47933 68.1147 8.65267 68.08 8.8C68.1147 8.93867 68.132 9.112 68.132 9.32C68.132 9.51933 68.1147 9.69267 68.08 9.84H70.16C70.1947 9.97867 70.212 10.152 70.212 10.36C70.212 10.5593 70.1947 10.7327 70.16 10.88H68.08ZM75.9371 8.28C75.9371 8.47933 75.9197 8.65267 75.8851 8.8C75.9197 8.93867 75.9371 9.112 75.9371 9.32C75.9371 9.51933 75.9197 9.69267 75.8851 9.84H75.3651C75.3997 9.97867 75.4171 10.152 75.4171 10.36C75.4171 10.5593 75.3997 10.7327 75.3651 10.88H72.7651C72.7997 11.0187 72.8171 11.192 72.8171 11.4C72.8171 11.5993 72.7997 11.7727 72.7651 11.92C72.7997 12.0587 72.8171 12.232 72.8171 12.44C72.8171 12.6393 72.7997 12.8127 72.7651 12.96C72.7997 13.0987 72.8171 13.272 72.8171 13.48C72.8171 13.6793 72.7997 13.8527 72.7651 14H71.7251C71.6904 13.8527 71.6731 13.6793 71.6731 13.48C71.6731 13.272 71.6904 13.0987 71.7251 12.96C71.6904 12.8127 71.6731 12.6393 71.6731 12.44C71.6731 12.232 71.6904 12.0587 71.7251 11.92C71.6904 11.7727 71.6731 11.5993 71.6731 11.4C71.6731 11.192 71.6904 11.0187 71.7251 10.88C71.6904 10.7327 71.6731 10.5593 71.6731 10.36C71.6731 10.152 71.6904 9.97867 71.7251 9.84C71.6904 9.69267 71.6731 9.51933 71.6731 9.32C71.6731 9.112 71.6904 8.93867 71.7251 8.8C71.6904 8.65267 71.6731 8.47933 71.6731 8.28C71.6731 8.072 71.6904 7.89867 71.7251 7.76C71.6904 7.61267 71.6731 7.43933 71.6731 7.24C71.6731 7.032 71.6904 6.85867 71.7251 6.72H75.3651C75.3997 6.85867 75.4171 7.032 75.4171 7.24C75.4171 7.43933 75.3997 7.61267 75.3651 7.76H75.8851C75.9197 7.89867 75.9371 8.072 75.9371 8.28ZM74.8451 9.84C74.8104 9.69267 74.7931 9.51933 74.7931 9.32C74.7931 9.112 74.8104 8.93867 74.8451 8.8C74.8104 8.65267 74.7931 8.47933 74.7931 8.28C74.7931 8.072 74.8104 7.89867 74.8451 7.76H72.7651C72.7997 7.89867 72.8171 8.072 72.8171 8.28C72.8171 8.47933 72.7997 8.65267 72.7651 8.8C72.7997 8.93867 72.8171 9.112 72.8171 9.32C72.8171 9.51933 72.7997 9.69267 72.7651 9.84H74.8451ZM80.3102 12.96C80.3448 13.0987 80.3622 13.272 80.3622 13.48C80.3622 13.6793 80.3448 13.8527 80.3102 14H77.7102C77.6755 13.8527 77.6582 13.6793 77.6582 13.48C77.6582 13.272 77.6755 13.0987 77.7102 12.96H78.4902C78.4555 12.8127 78.4382 12.6393 78.4382 12.44C78.4382 12.232 78.4555 12.0587 78.4902 11.92C78.4555 11.7727 78.4382 11.5993 78.4382 11.4C78.4382 11.192 78.4555 11.0187 78.4902 10.88C78.4555 10.7327 78.4382 10.5593 78.4382 10.36C78.4382 10.152 78.4555 9.97867 78.4902 9.84C78.4555 9.69267 78.4382 9.51933 78.4382 9.32C78.4382 9.112 78.4555 8.93867 78.4902 8.8C78.4555 8.65267 78.4382 8.47933 78.4382 8.28C78.4382 8.072 78.4555 7.89867 78.4902 7.76H77.7102C77.6755 7.61267 77.6582 7.43933 77.6582 7.24C77.6582 7.032 77.6755 6.85867 77.7102 6.72H80.3102C80.3448 6.85867 80.3622 7.032 80.3622 7.24C80.3622 7.43933 80.3448 7.61267 80.3102 7.76H79.5302C79.5648 7.89867 79.5822 8.072 79.5822 8.28C79.5822 8.47933 79.5648 8.65267 79.5302 8.8C79.5648 8.93867 79.5822 9.112 79.5822 9.32C79.5822 9.51933 79.5648 9.69267 79.5302 9.84C79.5648 9.97867 79.5822 10.152 79.5822 10.36C79.5822 10.5593 79.5648 10.7327 79.5302 10.88C79.5648 11.0187 79.5822 11.192 79.5822 11.4C79.5822 11.5993 79.5648 11.7727 79.5302 11.92C79.5648 12.0587 79.5822 12.232 79.5822 12.44C79.5822 12.6393 79.5648 12.8127 79.5302 12.96H80.3102ZM86.2952 11.92C86.3299 12.0587 86.3472 12.232 86.3472 12.44C86.3472 12.6393 86.3299 12.8127 86.2952 12.96H85.7752C85.8099 13.0987 85.8272 13.272 85.8272 13.48C85.8272 13.6793 85.8099 13.8527 85.7752 14H83.1752C83.1406 13.8527 83.1232 13.6793 83.1232 13.48C83.1232 13.272 83.1406 13.0987 83.1752 12.96H82.6552C82.6206 12.8127 82.6032 12.6393 82.6032 12.44C82.6032 12.232 82.6206 12.0587 82.6552 11.92H82.1352C82.1006 11.7727 82.0832 11.5993 82.0832 11.4C82.0832 11.192 82.1006 11.0187 82.1352 10.88C82.1006 10.7327 82.0832 10.5593 82.0832 10.36C82.0832 10.152 82.1006 9.97867 82.1352 9.84C82.1006 9.69267 82.0832 9.51933 82.0832 9.32C82.0832 9.112 82.1006 8.93867 82.1352 8.8H82.6552C82.6206 8.65267 82.6032 8.47933 82.6032 8.28C82.6032 8.072 82.6206 7.89867 82.6552 7.76H83.1752C83.1406 7.61267 83.1232 7.43933 83.1232 7.24C83.1232 7.032 83.1406 6.85867 83.1752 6.72H85.7752C85.8099 6.85867 85.8272 7.032 85.8272 7.24C85.8272 7.43933 85.8099 7.61267 85.7752 7.76H86.2952C86.3299 7.89867 86.3472 8.072 86.3472 8.28C86.3472 8.47933 86.3299 8.65267 86.2952 8.8H85.2552C85.2206 8.65267 85.2032 8.47933 85.2032 8.28C85.2032 8.072 85.2206 7.89867 85.2552 7.76H83.6952C83.7299 7.89867 83.7472 8.072 83.7472 8.28C83.7472 8.47933 83.7299 8.65267 83.6952 8.8H83.1752C83.2099 8.93867 83.2272 9.112 83.2272 9.32C83.2272 9.51933 83.2099 9.69267 83.1752 9.84C83.2099 9.97867 83.2272 10.152 83.2272 10.36C83.2272 10.5593 83.2099 10.7327 83.1752 10.88C83.2099 11.0187 83.2272 11.192 83.2272 11.4C83.2272 11.5993 83.2099 11.7727 83.1752 11.92H83.6952C83.7299 12.0587 83.7472 12.232 83.7472 12.44C83.7472 12.6393 83.7299 12.8127 83.6952 12.96H85.2552C85.2206 12.8127 85.2032 12.6393 85.2032 12.44C85.2032 12.232 85.2206 12.0587 85.2552 11.92H86.2952Z" fill="#9A07F6"/>
<rect width="0.600817" height="0.599901" transform="matrix(1 0 0 -1 51.8018 10.998)" fill="#9A07F6"/>
<rect width="0.600817" height="0.599901" transform="matrix(1 0 0 -1 50 11)" fill="#9A07F6"/>
<rect width="0.600817" height="0.599901" transform="matrix(1 0 0 -1 57.2095 10.998)" fill="#9A07F6"/>
<rect width="0.600817" height="0.599901" transform="matrix(1 0 0 -1 56.0078 10.998)" fill="#DA9EFF"/>
<rect width="0.600817" height="0.599901" transform="matrix(1 0 0 -1 51.2007 10.998)" fill="#DA9EFF"/>
<rect width="0.600817" height="0.599901" transform="matrix(1 0 0 -1 50.5996 11)" fill="#DA9EFF"/>
<rect width="0.600817" height="0.599901" transform="matrix(1 0 0 -1 56.6094 10.998)" fill="#DA9EFF"/>
<rect width="0.600817" height="0.599901" transform="matrix(1 0 0 -1 55.4067 10.998)" fill="#9A07F6"/>
<rect width="0.600817" height="0.599901" transform="matrix(1 0 0 -1 54.8066 10.998)" fill="#E4B8FF"/>
<rect width="0.600817" height="0.599901" transform="matrix(1 0 0 -1 54.2061 11)" fill="#E4B8FF"/>
<rect width="0.600817" height="0.599901" transform="matrix(1 0 0 -1 53.605 10.998)" fill="#E4B8FF"/>
<rect width="0.600817" height="0.599901" transform="matrix(1 0 0 -1 53.0044 10.998)" fill="#E4B8FF"/>
<rect width="0.600817" height="0.599901" transform="matrix(1 0 0 -1 52.4033 10.998)" fill="white"/>
<rect width="0.600817" height="0.599901" transform="matrix(1 0 0 -1 53.605 13.998)" fill="#9A07F6"/>
<rect width="0.600817" height="0.599901" transform="matrix(1 0 0 -1 54.2061 13.3984)" fill="#9A07F6"/>
<rect width="0.600817" height="0.599901" transform="matrix(1 0 0 -1 53.0044 13.3984)" fill="#9A07F6"/>
<rect width="0.600817" height="0.599901" transform="matrix(1 0 0 -1 52.4033 12.7988)" fill="#9A07F6"/>
<rect width="0.600817" height="0.599901" transform="matrix(1 0 0 -1 51.8018 12.1973)" fill="#9A07F6"/>
<rect width="0.600817" height="0.599901" transform="matrix(1 0 0 -1 51.8018 11.5996)" fill="#9A07F6"/>
<rect width="0.600817" height="0.599901" transform="matrix(1 0 0 -1 50 11.5996)" fill="#9A07F6"/>
<rect width="0.600817" height="0.599901" transform="matrix(1 0 0 -1 50 12.1973)" fill="#9A07F6"/>
<rect width="0.600817" height="0.599901" transform="matrix(1 0 0 -1 50 12.7988)" fill="#9A07F6"/>
<rect width="0.600817" height="0.599901" transform="matrix(1 0 0 -1 50.5996 13.3984)" fill="#9A07F6"/>
<rect width="0.600817" height="0.599901" transform="matrix(1 0 0 -1 51.2007 13.998)" fill="#9A07F6"/>
<rect width="0.600817" height="0.599901" transform="matrix(1 0 0 -1 51.8018 14.5977)" fill="#9A07F6"/>
<rect width="0.600817" height="0.599901" transform="matrix(1 0 0 -1 52.4033 15.1992)" fill="#9A07F6"/>
<rect width="0.600817" height="0.599901" transform="matrix(1 0 0 -1 53.0044 15.7969)" fill="#9A07F6"/>
<rect width="0.600817" height="0.599901" transform="matrix(1 0 0 -1 53.605 15.7969)" fill="#9A07F6"/>
<rect width="0.600817" height="0.599901" transform="matrix(1 0 0 -1 54.2061 15.7969)" fill="#9A07F6"/>
<rect width="0.600817" height="0.599901" transform="matrix(1 0 0 -1 54.8066 15.1992)" fill="#9A07F6"/>
<rect width="0.600817" height="0.599901" transform="matrix(1 0 0 -1 55.4067 14.5977)" fill="#9A07F6"/>
<rect width="0.600817" height="0.599901" transform="matrix(1 0 0 -1 56.0078 13.998)" fill="#9A07F6"/>
<rect width="0.600817" height="0.599901" transform="matrix(1 0 0 -1 56.6094 13.3984)" fill="#9A07F6"/>
<rect width="0.600817" height="0.599901" transform="matrix(1 0 0 -1 57.2095 12.7988)" fill="#9A07F6"/>
<rect width="0.600817" height="0.599901" transform="matrix(1 0 0 -1 57.2095 12.1973)" fill="#9A07F6"/>
<rect width="0.600817" height="0.599901" transform="matrix(1 0 0 -1 57.2095 11.5996)" fill="#9A07F6"/>
<rect width="0.600817" height="0.599901" transform="matrix(1 0 0 -1 56.0078 11.5996)" fill="#DA9EFF"/>
<rect width="0.600817" height="0.599901" transform="matrix(1 0 0 -1 56.0078 12.1973)" fill="#DA9EFF"/>
<rect width="0.600817" height="0.599901" transform="matrix(1 0 0 -1 56.0078 12.7988)" fill="#DA9EFF"/>
<rect width="0.600817" height="0.599901" transform="matrix(1 0 0 -1 55.4067 12.7988)" fill="#DA9EFF"/>
<rect width="0.600817" height="0.599901" transform="matrix(1 0 0 -1 55.4067 13.3984)" fill="#DA9EFF"/>
<rect width="0.600817" height="0.599901" transform="matrix(1 0 0 -1 54.8066 13.3984)" fill="#DA9EFF"/>
<rect width="0.600817" height="0.599901" transform="matrix(1 0 0 -1 54.8066 13.998)" fill="#DA9EFF"/>
<rect width="0.600817" height="0.599901" transform="matrix(1 0 0 -1 54.2061 13.998)" fill="#DA9EFF"/>
<rect width="0.600817" height="0.599901" transform="matrix(1 0 0 -1 54.2061 14.5977)" fill="#DA9EFF"/>
<rect width="0.600817" height="0.599901" transform="matrix(1 0 0 -1 53.605 14.5977)" fill="#DA9EFF"/>
<rect width="0.600817" height="0.599901" transform="matrix(1 0 0 -1 53.0044 14.5977)" fill="#DA9EFF"/>
<rect width="0.600817" height="0.599901" transform="matrix(1 0 0 -1 53.0044 13.998)" fill="#DA9EFF"/>
<rect width="0.600817" height="0.599901" transform="matrix(1 0 0 -1 52.4033 13.998)" fill="#DA9EFF"/>
<rect width="0.600817" height="0.599901" transform="matrix(1 0 0 -1 52.4033 13.3984)" fill="#DA9EFF"/>
<rect width="0.600817" height="0.599901" transform="matrix(1 0 0 -1 51.8018 13.3984)" fill="#DA9EFF"/>
<rect width="0.600817" height="0.599901" transform="matrix(1 0 0 -1 51.8018 12.7988)" fill="#DA9EFF"/>
<rect width="0.600817" height="0.599901" transform="matrix(1 0 0 -1 51.2007 12.7988)" fill="#DA9EFF"/>
<rect width="0.600817" height="0.599901" transform="matrix(1 0 0 -1 51.2007 12.1973)" fill="#DA9EFF"/>
<rect width="0.600817" height="0.599901" transform="matrix(1 0 0 -1 51.2007 11.5996)" fill="#DA9EFF"/>
<rect width="0.600817" height="0.599901" transform="matrix(1 0 0 -1 50.5996 11.5996)" fill="#DA9EFF"/>
<rect width="0.600817" height="0.599901" transform="matrix(1 0 0 -1 50.5996 12.1973)" fill="#DA9EFF"/>
<rect width="0.600817" height="0.599901" transform="matrix(1 0 0 -1 50.5996 12.7988)" fill="#C15FFF"/>
<rect width="0.600817" height="0.599901" transform="matrix(1 0 0 -1 51.2007 13.3984)" fill="#C15FFF"/>
<rect width="0.600817" height="0.599901" transform="matrix(1 0 0 -1 51.8018 13.998)" fill="#C15FFF"/>
<rect width="0.600817" height="0.599901" transform="matrix(1 0 0 -1 52.4033 14.5977)" fill="#C15FFF"/>
<rect width="0.600817" height="0.599901" transform="matrix(1 0 0 -1 53.0044 15.1992)" fill="#C15FFF"/>
<rect width="0.600817" height="0.599901" transform="matrix(1 0 0 -1 53.605 15.1992)" fill="#C15FFF"/>
<rect width="0.600817" height="0.599901" transform="matrix(1 0 0 -1 54.2061 15.1992)" fill="#C15FFF"/>
<rect width="0.600817" height="0.599901" transform="matrix(1 0 0 -1 54.8066 14.5977)" fill="#C15FFF"/>
<rect width="0.600817" height="0.599901" transform="matrix(1 0 0 -1 55.4067 13.998)" fill="#C15FFF"/>
<rect width="0.600817" height="0.599901" transform="matrix(1 0 0 -1 56.0078 13.3984)" fill="#C15FFF"/>
<rect width="0.600817" height="0.599901" transform="matrix(1 0 0 -1 56.6094 12.7988)" fill="#C15FFF"/>
<rect width="0.600817" height="0.599901" transform="matrix(1 0 0 -1 56.6094 11.5996)" fill="#DA9EFF"/>
<rect width="0.600817" height="0.599901" transform="matrix(1 0 0 -1 56.6094 12.1973)" fill="#DA9EFF"/>
<rect width="0.600817" height="0.599901" transform="matrix(1 0 0 -1 55.4067 11.5996)" fill="#9A07F6"/>
<rect width="0.600817" height="0.599901" transform="matrix(1 0 0 -1 55.4067 12.1973)" fill="#9A07F6"/>
<rect width="0.600817" height="0.599901" transform="matrix(1 0 0 -1 54.8066 12.1973)" fill="#E4B8FF"/>
<rect width="0.600817" height="0.599901" transform="matrix(1 0 0 -1 54.8066 11.5996)" fill="#E4B8FF"/>
<rect width="0.600817" height="0.599901" transform="matrix(1 0 0 -1 54.2061 12.1973)" fill="#E4B8FF"/>
<rect width="0.600817" height="0.599901" transform="matrix(1 0 0 -1 54.2061 11.5996)" fill="#E4B8FF"/>
<rect width="0.600817" height="0.599901" transform="matrix(1 0 0 -1 54.2061 12.7988)" fill="#E4B8FF"/>
<rect width="0.600817" height="0.599901" transform="matrix(1 0 0 -1 53.605 12.1973)" fill="#E4B8FF"/>
<rect width="0.600817" height="0.599901" transform="matrix(1 0 0 -1 53.605 11.5996)" fill="#E4B8FF"/>
<rect width="0.600817" height="0.599901" transform="matrix(1 0 0 -1 53.605 12.7988)" fill="#E4B8FF"/>
<rect width="0.600817" height="0.599901" transform="matrix(1 0 0 -1 53.605 13.3984)" fill="#E4B8FF"/>
<rect width="0.600817" height="0.599901" transform="matrix(1 0 0 -1 53.0044 12.1973)" fill="#E4B8FF"/>
<rect width="0.600817" height="0.599901" transform="matrix(1 0 0 -1 53.0044 11.5996)" fill="#E4B8FF"/>
<rect width="0.600817" height="0.599901" transform="matrix(1 0 0 -1 53.0044 12.7988)" fill="#E4B8FF"/>
<rect width="0.600817" height="0.599901" transform="matrix(1 0 0 -1 52.4033 12.1973)" fill="white"/>
<rect width="0.600817" height="0.599901" transform="matrix(1 0 0 -1 52.4033 11.5996)" fill="white"/>
<rect width="0.600817" height="0.599901" transform="matrix(1 0 0 -1 54.8066 12.7988)" fill="#9A07F6"/>
<rect x="51.8018" y="9.79883" width="0.600817" height="0.599901" fill="#9A07F6"/>
<rect x="50" y="9.79883" width="0.600817" height="0.599901" fill="#9A07F6"/>
<rect x="57.2095" y="9.79883" width="0.600817" height="0.599901" fill="#9A07F6"/>
<rect x="56.0078" y="9.79883" width="0.600817" height="0.599901" fill="#DA9EFF"/>
<rect x="51.2007" y="9.79883" width="0.600817" height="0.599901" fill="#DA9EFF"/>
<rect x="50.5996" y="9.79883" width="0.600817" height="0.599901" fill="#DA9EFF"/>
<rect x="56.6094" y="9.79883" width="0.600817" height="0.599901" fill="#DA9EFF"/>
<rect x="55.4067" y="9.79883" width="0.600817" height="0.599901" fill="#9A07F6"/>
<rect x="54.8066" y="9.79883" width="0.600817" height="0.599901" fill="#E4B8FF"/>
<rect x="54.2061" y="9.79883" width="0.600817" height="0.599901" fill="#E4B8FF"/>
<rect x="53.605" y="9.79883" width="0.600817" height="0.599901" fill="#E4B8FF"/>
<rect x="53.0044" y="9.79883" width="0.600817" height="0.599901" fill="#E4B8FF"/>
<rect x="52.4033" y="9.79883" width="0.600817" height="0.599901" fill="white"/>
<rect x="53.605" y="6.79883" width="0.600817" height="0.599901" fill="#9A07F6"/>
<rect x="54.2061" y="7.40039" width="0.600817" height="0.599901" fill="#9A07F6"/>
<rect x="53.0044" y="7.40039" width="0.600817" height="0.599901" fill="#9A07F6"/>
<rect x="52.4033" y="7.99805" width="0.600817" height="0.599901" fill="#9A07F6"/>
<rect x="51.8018" y="8.59961" width="0.600817" height="0.599901" fill="#9A07F6"/>
<rect x="51.8018" y="9.19922" width="0.600817" height="0.599901" fill="#9A07F6"/>
<rect x="50" y="9.19922" width="0.600817" height="0.599901" fill="#9A07F6"/>
<rect x="50" y="8.59961" width="0.600817" height="0.599901" fill="#9A07F6"/>
<rect x="50" y="7.99805" width="0.600817" height="0.599901" fill="#9A07F6"/>
<rect x="50.5996" y="7.40039" width="0.600817" height="0.599901" fill="#9A07F6"/>
<rect x="51.2007" y="6.79883" width="0.600817" height="0.599901" fill="#9A07F6"/>
<rect x="51.8018" y="6.19922" width="0.600817" height="0.599901" fill="#9A07F6"/>
<rect x="52.4033" y="5.59961" width="0.600817" height="0.599901" fill="#9A07F6"/>
<rect x="53.0044" y="5" width="0.600817" height="0.599901" fill="#9A07F6"/>
<rect x="53.605" y="5" width="0.600817" height="0.599901" fill="#9A07F6"/>
<rect x="54.2061" y="5" width="0.600817" height="0.599901" fill="#9A07F6"/>
<rect x="54.8066" y="5.59961" width="0.600817" height="0.599901" fill="#9A07F6"/>
<rect x="55.4067" y="6.19922" width="0.600817" height="0.599901" fill="#9A07F6"/>
<rect x="56.0078" y="6.79883" width="0.600817" height="0.599901" fill="#9A07F6"/>
<rect x="56.6094" y="7.40039" width="0.600817" height="0.599901" fill="#9A07F6"/>
<rect x="57.2095" y="7.99805" width="0.600817" height="0.599901" fill="#9A07F6"/>
<rect x="57.2095" y="8.59961" width="0.600817" height="0.599901" fill="#9A07F6"/>
<rect x="57.2095" y="9.19922" width="0.600817" height="0.599901" fill="#9A07F6"/>
<rect x="56.0078" y="9.19922" width="0.600817" height="0.599901" fill="#DA9EFF"/>
<rect x="56.0078" y="8.59961" width="0.600817" height="0.599901" fill="#DA9EFF"/>
<rect x="56.0078" y="7.99805" width="0.600817" height="0.599901" fill="#DA9EFF"/>
<rect x="55.4067" y="7.99805" width="0.600817" height="0.599901" fill="#DA9EFF"/>
<rect x="55.4067" y="7.40039" width="0.600817" height="0.599901" fill="#DA9EFF"/>
<rect x="54.8066" y="7.40039" width="0.600817" height="0.599901" fill="#DA9EFF"/>
<rect x="54.8066" y="6.79883" width="0.600817" height="0.599901" fill="#DA9EFF"/>
<rect x="54.2061" y="6.79883" width="0.600817" height="0.599901" fill="#DA9EFF"/>
<rect x="54.2061" y="6.19922" width="0.600817" height="0.599901" fill="#DA9EFF"/>
<rect x="53.605" y="6.19922" width="0.600817" height="0.599901" fill="#DA9EFF"/>
<rect x="53.0044" y="6.19922" width="0.600817" height="0.599901" fill="#DA9EFF"/>
<rect x="53.0044" y="6.79883" width="0.600817" height="0.599901" fill="#DA9EFF"/>
<rect x="52.4033" y="6.79883" width="0.600817" height="0.599901" fill="#DA9EFF"/>
<rect x="52.4033" y="7.40039" width="0.600817" height="0.599901" fill="#DA9EFF"/>
<rect x="51.8018" y="7.40039" width="0.600817" height="0.599901" fill="#DA9EFF"/>
<rect x="51.8018" y="7.99805" width="0.600817" height="0.599901" fill="#DA9EFF"/>
<rect x="51.2007" y="7.99805" width="0.600817" height="0.599901" fill="#DA9EFF"/>
<rect x="51.2007" y="8.59961" width="0.600817" height="0.599901" fill="#DA9EFF"/>
<rect x="51.2007" y="9.19922" width="0.600817" height="0.599901" fill="#DA9EFF"/>
<rect x="50.5996" y="9.19922" width="0.600817" height="0.599901" fill="#DA9EFF"/>
<rect x="50.5996" y="8.59961" width="0.600817" height="0.599901" fill="#DA9EFF"/>
<rect x="50.5996" y="7.99805" width="0.600817" height="0.599901" fill="#C15FFF"/>
<rect x="51.2007" y="7.40039" width="0.600817" height="0.599901" fill="#C15FFF"/>
<rect x="51.8018" y="6.79883" width="0.600817" height="0.599901" fill="#C15FFF"/>
<rect x="52.4033" y="6.19922" width="0.600817" height="0.599901" fill="#C15FFF"/>
<rect x="53.0044" y="5.59961" width="0.600817" height="0.599901" fill="#C15FFF"/>
<rect x="53.605" y="5.59961" width="0.600817" height="0.599901" fill="#C15FFF"/>
<rect x="54.2061" y="5.59961" width="0.600817" height="0.599901" fill="#C15FFF"/>
<rect x="54.8066" y="6.19922" width="0.600817" height="0.599901" fill="#C15FFF"/>
<rect x="55.4067" y="6.79883" width="0.600817" height="0.599901" fill="#C15FFF"/>
<rect x="56.0078" y="7.40039" width="0.600817" height="0.599901" fill="#C15FFF"/>
<rect x="56.6094" y="7.99805" width="0.600817" height="0.599901" fill="#C15FFF"/>
<rect x="56.6094" y="9.19922" width="0.600817" height="0.599901" fill="#DA9EFF"/>
<rect x="56.6094" y="8.59961" width="0.600817" height="0.599901" fill="#DA9EFF"/>
<rect x="55.4067" y="9.19922" width="0.600817" height="0.599901" fill="#9A07F6"/>
<rect x="55.4067" y="8.59961" width="0.600817" height="0.599901" fill="#9A07F6"/>
<rect x="54.8066" y="8.59961" width="0.600817" height="0.599901" fill="#E4B8FF"/>
<rect x="54.8066" y="9.19922" width="0.600817" height="0.599901" fill="#E4B8FF"/>
<rect x="54.2061" y="8.59961" width="0.600817" height="0.599901" fill="#E4B8FF"/>
<rect x="54.2061" y="9.19922" width="0.600817" height="0.599901" fill="#E4B8FF"/>
<rect x="54.2061" y="7.99805" width="0.600817" height="0.599901" fill="#E4B8FF"/>
<rect x="53.605" y="8.59961" width="0.600817" height="0.599901" fill="#E4B8FF"/>
<rect x="53.605" y="9.19922" width="0.600817" height="0.599901" fill="#E4B8FF"/>
<rect x="53.605" y="7.99805" width="0.600817" height="0.599901" fill="#E4B8FF"/>
<rect x="53.605" y="7.40039" width="0.600817" height="0.599901" fill="#E4B8FF"/>
<rect x="53.0044" y="8.59961" width="0.600817" height="0.599901" fill="#E4B8FF"/>
<rect x="53.0044" y="9.19922" width="0.600817" height="0.599901" fill="#E4B8FF"/>
<rect x="53.0044" y="7.99805" width="0.600817" height="0.599901" fill="#E4B8FF"/>
<rect x="52.4033" y="8.59961" width="0.600817" height="0.599901" fill="white"/>
<rect x="52.4033" y="9.19922" width="0.600817" height="0.599901" fill="white"/>
<rect x="54.8066" y="7.99805" width="0.600817" height="0.599901" fill="#9A07F6"/>
</svg>
