<svg width="142" height="20" viewBox="0 0 142 20" fill="none" xmlns="http://www.w3.org/2000/svg">
<path d="M0.257017 6.40311V4.51874H2.17757H2.42757V4.26874V2.38437H4.34812H4.59812V2.13437V0.25H136.471V2.13437V2.38437H136.721H138.642V4.26874V4.51874H138.892H140.813V6.40311V7.79684V12.1284V13.5222V15.4065H138.892H138.642V15.6565V17.5409H136.721H136.471V17.7909V19.6753H4.59812V17.7909V17.5409H4.34812H2.42757V15.6565V15.4065H2.17757H0.257017L0.25702 13.5222L0.257014 13.5209L0.25 12.1284V12.1278V7.79747V7.79684L0.257017 6.40437V6.40311Z" fill="#FF8101" fill-opacity="0.13" stroke="#FF8101" stroke-width="0.5"/>
<path d="M58.0081 12.4248C58.0428 12.5635 58.0601 12.7368 58.0601 12.9448C58.0601 13.1442 58.0428 13.3175 58.0081 13.4648H54.3681C54.3335 13.3175 54.3161 13.1442 54.3161 12.9448C54.3161 12.7368 54.3335 12.5635 54.3681 12.4248C54.3335 12.2775 54.3161 12.1042 54.3161 11.9048C54.3161 11.6968 54.3335 11.5235 54.3681 11.3848C54.3335 11.2375 54.3161 11.0642 54.3161 10.8648C54.3161 10.6568 54.3335 10.4835 54.3681 10.3448C54.3335 10.1975 54.3161 10.0242 54.3161 9.82484C54.3161 9.61684 54.3335 9.44351 54.3681 9.30484C54.3335 9.15751 54.3161 8.98418 54.3161 8.78484C54.3161 8.57684 54.3335 8.40351 54.3681 8.26484C54.3335 8.11751 54.3161 7.94418 54.3161 7.74484C54.3161 7.53684 54.3335 7.36351 54.3681 7.22484C54.3335 7.07751 54.3161 6.90418 54.3161 6.70484C54.3161 6.49684 54.3335 6.32351 54.3681 6.18484H55.4081C55.4428 6.32351 55.4601 6.49684 55.4601 6.70484C55.4601 6.90418 55.4428 7.07751 55.4081 7.22484C55.4428 7.36351 55.4601 7.53684 55.4601 7.74484C55.4601 7.94418 55.4428 8.11751 55.4081 8.26484C55.4428 8.40351 55.4601 8.57684 55.4601 8.78484C55.4601 8.98418 55.4428 9.15751 55.4081 9.30484C55.4428 9.44351 55.4601 9.61684 55.4601 9.82484C55.4601 10.0242 55.4428 10.1975 55.4081 10.3448C55.4428 10.4835 55.4601 10.6568 55.4601 10.8648C55.4601 11.0642 55.4428 11.2375 55.4081 11.3848C55.4428 11.5235 55.4601 11.6968 55.4601 11.9048C55.4601 12.1042 55.4428 12.2775 55.4081 12.4248H58.0081ZM60.6132 10.3448C60.6479 10.4835 60.6652 10.6568 60.6652 10.8648C60.6652 11.0642 60.6479 11.2375 60.6132 11.3848C60.6479 11.5235 60.6652 11.6968 60.6652 11.9048C60.6652 12.1042 60.6479 12.2775 60.6132 12.4248H62.6932C62.7279 12.5635 62.7452 12.7368 62.7452 12.9448C62.7452 13.1442 62.7279 13.3175 62.6932 13.4648H59.5732C59.5385 13.3175 59.5212 13.1442 59.5212 12.9448C59.5212 12.7368 59.5385 12.5635 59.5732 12.4248C59.5385 12.2775 59.5212 12.1042 59.5212 11.9048C59.5212 11.6968 59.5385 11.5235 59.5732 11.3848C59.5385 11.2375 59.5212 11.0642 59.5212 10.8648C59.5212 10.6568 59.5385 10.4835 59.5732 10.3448C59.5385 10.1975 59.5212 10.0242 59.5212 9.82484C59.5212 9.61684 59.5385 9.44351 59.5732 9.30484C59.5385 9.15751 59.5212 8.98418 59.5212 8.78484C59.5212 8.57684 59.5385 8.40351 59.5732 8.26484C59.5385 8.11751 59.5212 7.94418 59.5212 7.74484C59.5212 7.53684 59.5385 7.36351 59.5732 7.22484C59.5385 7.07751 59.5212 6.90418 59.5212 6.70484C59.5212 6.49684 59.5385 6.32351 59.5732 6.18484H62.6932C62.7279 6.32351 62.7452 6.49684 62.7452 6.70484C62.7452 6.90418 62.7279 7.07751 62.6932 7.22484H60.6132C60.6479 7.36351 60.6652 7.53684 60.6652 7.74484C60.6652 7.94418 60.6479 8.11751 60.6132 8.26484C60.6479 8.40351 60.6652 8.57684 60.6652 8.78484C60.6652 8.98418 60.6479 9.15751 60.6132 9.30484H62.6932C62.7279 9.44351 62.7452 9.61684 62.7452 9.82484C62.7452 10.0242 62.7279 10.1975 62.6932 10.3448H60.6132ZM68.4183 9.30484C68.4529 9.44351 68.4703 9.61684 68.4703 9.82484C68.4703 10.0242 68.4529 10.1975 68.4183 10.3448C68.4529 10.4835 68.4703 10.6568 68.4703 10.8648C68.4703 11.0642 68.4529 11.2375 68.4183 11.3848C68.4529 11.5235 68.4703 11.6968 68.4703 11.9048C68.4703 12.1042 68.4529 12.2775 68.4183 12.4248H67.8983C67.9329 12.5635 67.9503 12.7368 67.9503 12.9448C67.9503 13.1442 67.9329 13.3175 67.8983 13.4648H65.2983C65.2636 13.3175 65.2463 13.1442 65.2463 12.9448C65.2463 12.7368 65.2636 12.5635 65.2983 12.4248H64.7783C64.7436 12.2775 64.7263 12.1042 64.7263 11.9048C64.7263 11.6968 64.7436 11.5235 64.7783 11.3848H64.2583C64.2236 11.2375 64.2063 11.0642 64.2063 10.8648C64.2063 10.6568 64.2236 10.4835 64.2583 10.3448C64.2236 10.1975 64.2063 10.0242 64.2063 9.82484C64.2063 9.61684 64.2236 9.44351 64.2583 9.30484C64.2236 9.15751 64.2063 8.98418 64.2063 8.78484C64.2063 8.57684 64.2236 8.40351 64.2583 8.26484H64.7783C64.7436 8.11751 64.7263 7.94418 64.7263 7.74484C64.7263 7.53684 64.7436 7.36351 64.7783 7.22484H65.2983C65.2636 7.07751 65.2463 6.90418 65.2463 6.70484C65.2463 6.49684 65.2636 6.32351 65.2983 6.18484H67.8983C67.9329 6.32351 67.9503 6.49684 67.9503 6.70484C67.9503 6.90418 67.9329 7.07751 67.8983 7.22484H68.4183C68.4529 7.36351 68.4703 7.53684 68.4703 7.74484C68.4703 7.94418 68.4529 8.11751 68.4183 8.26484H67.3783C67.3436 8.11751 67.3263 7.94418 67.3263 7.74484C67.3263 7.53684 67.3436 7.36351 67.3783 7.22484H65.8183C65.8529 7.36351 65.8703 7.53684 65.8703 7.74484C65.8703 7.94418 65.8529 8.11751 65.8183 8.26484H65.2983C65.3329 8.40351 65.3503 8.57684 65.3503 8.78484C65.3503 8.98418 65.3329 9.15751 65.2983 9.30484C65.3329 9.44351 65.3503 9.61684 65.3503 9.82484C65.3503 10.0242 65.3329 10.1975 65.2983 10.3448C65.3329 10.4835 65.3503 10.6568 65.3503 10.8648C65.3503 11.0642 65.3329 11.2375 65.2983 11.3848H65.8183C65.8529 11.5235 65.8703 11.6968 65.8703 11.9048C65.8703 12.1042 65.8529 12.2775 65.8183 12.4248H67.3783C67.3436 12.2775 67.3263 12.1042 67.3263 11.9048C67.3263 11.6968 67.3436 11.5235 67.3783 11.3848C67.3436 11.2375 67.3263 11.0642 67.3263 10.8648C67.3263 10.6568 67.3436 10.4835 67.3783 10.3448H66.5983C66.5636 10.1975 66.5463 10.0242 66.5463 9.82484C66.5463 9.61684 66.5636 9.44351 66.5983 9.30484H68.4183ZM71.0234 10.3448C71.058 10.4835 71.0754 10.6568 71.0754 10.8648C71.0754 11.0642 71.058 11.2375 71.0234 11.3848C71.058 11.5235 71.0754 11.6968 71.0754 11.9048C71.0754 12.1042 71.058 12.2775 71.0234 12.4248H73.1034C73.138 12.5635 73.1554 12.7368 73.1554 12.9448C73.1554 13.1442 73.138 13.3175 73.1034 13.4648H69.9834C69.9487 13.3175 69.9314 13.1442 69.9314 12.9448C69.9314 12.7368 69.9487 12.5635 69.9834 12.4248C69.9487 12.2775 69.9314 12.1042 69.9314 11.9048C69.9314 11.6968 69.9487 11.5235 69.9834 11.3848C69.9487 11.2375 69.9314 11.0642 69.9314 10.8648C69.9314 10.6568 69.9487 10.4835 69.9834 10.3448C69.9487 10.1975 69.9314 10.0242 69.9314 9.82484C69.9314 9.61684 69.9487 9.44351 69.9834 9.30484C69.9487 9.15751 69.9314 8.98418 69.9314 8.78484C69.9314 8.57684 69.9487 8.40351 69.9834 8.26484C69.9487 8.11751 69.9314 7.94418 69.9314 7.74484C69.9314 7.53684 69.9487 7.36351 69.9834 7.22484C69.9487 7.07751 69.9314 6.90418 69.9314 6.70484C69.9314 6.49684 69.9487 6.32351 69.9834 6.18484H73.1034C73.138 6.32351 73.1554 6.49684 73.1554 6.70484C73.1554 6.90418 73.138 7.07751 73.1034 7.22484H71.0234C71.058 7.36351 71.0754 7.53684 71.0754 7.74484C71.0754 7.94418 71.058 8.11751 71.0234 8.26484C71.058 8.40351 71.0754 8.57684 71.0754 8.78484C71.0754 8.98418 71.058 9.15751 71.0234 9.30484H73.1034C73.138 9.44351 73.1554 9.61684 73.1554 9.82484C73.1554 10.0242 73.138 10.1975 73.1034 10.3448H71.0234ZM78.8284 7.22484C78.8631 7.36351 78.8804 7.53684 78.8804 7.74484C78.8804 7.94418 78.8631 8.11751 78.8284 8.26484C78.8631 8.40351 78.8804 8.57684 78.8804 8.78484C78.8804 8.98418 78.8631 9.15751 78.8284 9.30484C78.8631 9.44351 78.8804 9.61684 78.8804 9.82484C78.8804 10.0242 78.8631 10.1975 78.8284 10.3448C78.8631 10.4835 78.8804 10.6568 78.8804 10.8648C78.8804 11.0642 78.8631 11.2375 78.8284 11.3848C78.8631 11.5235 78.8804 11.6968 78.8804 11.9048C78.8804 12.1042 78.8631 12.2775 78.8284 12.4248C78.8631 12.5635 78.8804 12.7368 78.8804 12.9448C78.8804 13.1442 78.8631 13.3175 78.8284 13.4648H77.7884C77.7538 13.3175 77.7364 13.1442 77.7364 12.9448C77.7364 12.7368 77.7538 12.5635 77.7884 12.4248H77.1384C77.1038 12.2775 77.0864 12.1042 77.0864 11.9048C77.0864 11.6968 77.1038 11.5235 77.1384 11.3848H76.7484C76.7138 11.2375 76.6964 11.0642 76.6964 10.8648C76.6964 10.6568 76.7138 10.4835 76.7484 10.3448H76.2284C76.1938 10.1975 76.1764 10.0242 76.1764 9.82484C76.1764 9.61684 76.1938 9.44351 76.2284 9.30484H75.7084C75.7431 9.44351 75.7604 9.61684 75.7604 9.82484C75.7604 10.0242 75.7431 10.1975 75.7084 10.3448C75.7431 10.4835 75.7604 10.6568 75.7604 10.8648C75.7604 11.0642 75.7431 11.2375 75.7084 11.3848C75.7431 11.5235 75.7604 11.6968 75.7604 11.9048C75.7604 12.1042 75.7431 12.2775 75.7084 12.4248C75.7431 12.5635 75.7604 12.7368 75.7604 12.9448C75.7604 13.1442 75.7431 13.3175 75.7084 13.4648H74.6684C74.6338 13.3175 74.6164 13.1442 74.6164 12.9448C74.6164 12.7368 74.6338 12.5635 74.6684 12.4248C74.6338 12.2775 74.6164 12.1042 74.6164 11.9048C74.6164 11.6968 74.6338 11.5235 74.6684 11.3848C74.6338 11.2375 74.6164 11.0642 74.6164 10.8648C74.6164 10.6568 74.6338 10.4835 74.6684 10.3448C74.6338 10.1975 74.6164 10.0242 74.6164 9.82484C74.6164 9.61684 74.6338 9.44351 74.6684 9.30484C74.6338 9.15751 74.6164 8.98418 74.6164 8.78484C74.6164 8.57684 74.6338 8.40351 74.6684 8.26484C74.6338 8.11751 74.6164 7.94418 74.6164 7.74484C74.6164 7.53684 74.6338 7.36351 74.6684 7.22484C74.6338 7.07751 74.6164 6.90418 74.6164 6.70484C74.6164 6.49684 74.6338 6.32351 74.6684 6.18484H75.9684C76.0031 6.32351 76.0204 6.49684 76.0204 6.70484C76.0204 6.90418 76.0031 7.07751 75.9684 7.22484H76.3584C76.3931 7.36351 76.4104 7.53684 76.4104 7.74484C76.4104 7.94418 76.3931 8.11751 76.3584 8.26484H76.7484C76.7831 8.40351 76.8004 8.57684 76.8004 8.78484C76.8004 8.98418 76.7831 9.15751 76.7484 9.30484H77.2684C77.3031 9.44351 77.3204 9.61684 77.3204 9.82484C77.3204 10.0242 77.3031 10.1975 77.2684 10.3448H77.7884C77.7538 10.1975 77.7364 10.0242 77.7364 9.82484C77.7364 9.61684 77.7538 9.44351 77.7884 9.30484C77.7538 9.15751 77.7364 8.98418 77.7364 8.78484C77.7364 8.57684 77.7538 8.40351 77.7884 8.26484C77.7538 8.11751 77.7364 7.94418 77.7364 7.74484C77.7364 7.53684 77.7538 7.36351 77.7884 7.22484C77.7538 7.07751 77.7364 6.90418 77.7364 6.70484C77.7364 6.49684 77.7538 6.32351 77.7884 6.18484H78.8284C78.8631 6.32351 78.8804 6.49684 78.8804 6.70484C78.8804 6.90418 78.8631 7.07751 78.8284 7.22484ZM84.0335 9.30484C84.0682 9.44351 84.0855 9.61684 84.0855 9.82484C84.0855 10.0242 84.0682 10.1975 84.0335 10.3448C84.0682 10.4835 84.0855 10.6568 84.0855 10.8648C84.0855 11.0642 84.0682 11.2375 84.0335 11.3848H83.5135C83.5482 11.5235 83.5655 11.6968 83.5655 11.9048C83.5655 12.1042 83.5482 12.2775 83.5135 12.4248H82.9935C83.0282 12.5635 83.0455 12.7368 83.0455 12.9448C83.0455 13.1442 83.0282 13.3175 82.9935 13.4648H79.8735C79.8388 13.3175 79.8215 13.1442 79.8215 12.9448C79.8215 12.7368 79.8388 12.5635 79.8735 12.4248C79.8388 12.2775 79.8215 12.1042 79.8215 11.9048C79.8215 11.6968 79.8388 11.5235 79.8735 11.3848C79.8388 11.2375 79.8215 11.0642 79.8215 10.8648C79.8215 10.6568 79.8388 10.4835 79.8735 10.3448C79.8388 10.1975 79.8215 10.0242 79.8215 9.82484C79.8215 9.61684 79.8388 9.44351 79.8735 9.30484C79.8388 9.15751 79.8215 8.98418 79.8215 8.78484C79.8215 8.57684 79.8388 8.40351 79.8735 8.26484C79.8388 8.11751 79.8215 7.94418 79.8215 7.74484C79.8215 7.53684 79.8388 7.36351 79.8735 7.22484C79.8388 7.07751 79.8215 6.90418 79.8215 6.70484C79.8215 6.49684 79.8388 6.32351 79.8735 6.18484H82.9935C83.0282 6.32351 83.0455 6.49684 83.0455 6.70484C83.0455 6.90418 83.0282 7.07751 82.9935 7.22484H83.5135C83.5482 7.36351 83.5655 7.53684 83.5655 7.74484C83.5655 7.94418 83.5482 8.11751 83.5135 8.26484H84.0335C84.0682 8.40351 84.0855 8.57684 84.0855 8.78484C84.0855 8.98418 84.0682 9.15751 84.0335 9.30484ZM82.9935 11.3848C82.9588 11.2375 82.9415 11.0642 82.9415 10.8648C82.9415 10.6568 82.9588 10.4835 82.9935 10.3448C82.9588 10.1975 82.9415 10.0242 82.9415 9.82484C82.9415 9.61684 82.9588 9.44351 82.9935 9.30484C82.9588 9.15751 82.9415 8.98418 82.9415 8.78484C82.9415 8.57684 82.9588 8.40351 82.9935 8.26484H82.4735C82.4388 8.11751 82.4215 7.94418 82.4215 7.74484C82.4215 7.53684 82.4388 7.36351 82.4735 7.22484H80.9135C80.9482 7.36351 80.9655 7.53684 80.9655 7.74484C80.9655 7.94418 80.9482 8.11751 80.9135 8.26484C80.9482 8.40351 80.9655 8.57684 80.9655 8.78484C80.9655 8.98418 80.9482 9.15751 80.9135 9.30484C80.9482 9.44351 80.9655 9.61684 80.9655 9.82484C80.9655 10.0242 80.9482 10.1975 80.9135 10.3448C80.9482 10.4835 80.9655 10.6568 80.9655 10.8648C80.9655 11.0642 80.9482 11.2375 80.9135 11.3848C80.9482 11.5235 80.9655 11.6968 80.9655 11.9048C80.9655 12.1042 80.9482 12.2775 80.9135 12.4248H82.4735C82.4388 12.2775 82.4215 12.1042 82.4215 11.9048C82.4215 11.6968 82.4388 11.5235 82.4735 11.3848H82.9935ZM89.2906 11.9048C89.2906 12.1042 89.2733 12.2775 89.2386 12.4248C89.2733 12.5635 89.2906 12.7368 89.2906 12.9448C89.2906 13.1442 89.2733 13.3175 89.2386 13.4648H88.1986C88.1639 13.3175 88.1466 13.1442 88.1466 12.9448C88.1466 12.7368 88.1639 12.5635 88.1986 12.4248C88.1639 12.2775 88.1466 12.1042 88.1466 11.9048C88.1466 11.6968 88.1639 11.5235 88.1986 11.3848H86.1186C86.1533 11.5235 86.1706 11.6968 86.1706 11.9048C86.1706 12.1042 86.1533 12.2775 86.1186 12.4248C86.1533 12.5635 86.1706 12.7368 86.1706 12.9448C86.1706 13.1442 86.1533 13.3175 86.1186 13.4648H85.0786C85.0439 13.3175 85.0266 13.1442 85.0266 12.9448C85.0266 12.7368 85.0439 12.5635 85.0786 12.4248C85.0439 12.2775 85.0266 12.1042 85.0266 11.9048C85.0266 11.6968 85.0439 11.5235 85.0786 11.3848H85.4686C85.4339 11.2375 85.4166 11.0642 85.4166 10.8648C85.4166 10.6568 85.4339 10.4835 85.4686 10.3448C85.4339 10.1975 85.4166 10.0242 85.4166 9.82484C85.4166 9.61684 85.4339 9.44351 85.4686 9.30484H85.7286C85.6939 9.15751 85.6766 8.98418 85.6766 8.78484C85.6766 8.57684 85.6939 8.40351 85.7286 8.26484H86.1186C86.0839 8.11751 86.0666 7.94418 86.0666 7.74484C86.0666 7.53684 86.0839 7.36351 86.1186 7.22484H86.3786C86.3439 7.07751 86.3266 6.90418 86.3266 6.70484C86.3266 6.49684 86.3439 6.32351 86.3786 6.18484H87.9386C87.9733 6.32351 87.9906 6.49684 87.9906 6.70484C87.9906 6.90418 87.9733 7.07751 87.9386 7.22484H88.1986C88.2333 7.36351 88.2506 7.53684 88.2506 7.74484C88.2506 7.94418 88.2333 8.11751 88.1986 8.26484H88.5886C88.6233 8.40351 88.6406 8.57684 88.6406 8.78484C88.6406 8.98418 88.6233 9.15751 88.5886 9.30484H88.8486C88.8833 9.44351 88.9006 9.61684 88.9006 9.82484C88.9006 10.0242 88.8833 10.1975 88.8486 10.3448C88.8833 10.4835 88.9006 10.6568 88.9006 10.8648C88.9006 11.0642 88.8833 11.2375 88.8486 11.3848H89.2386C89.2733 11.5235 89.2906 11.6968 89.2906 11.9048ZM87.8086 10.3448C87.7739 10.1975 87.7566 10.0242 87.7566 9.82484C87.7566 9.61684 87.7739 9.44351 87.8086 9.30484H87.5486C87.5139 9.15751 87.4966 8.98418 87.4966 8.78484C87.4966 8.57684 87.5139 8.40351 87.5486 8.26484H86.7686C86.8033 8.40351 86.8206 8.57684 86.8206 8.78484C86.8206 8.98418 86.8033 9.15751 86.7686 9.30484H86.5086C86.5433 9.44351 86.5606 9.61684 86.5606 9.82484C86.5606 10.0242 86.5433 10.1975 86.5086 10.3448H87.8086ZM94.4437 12.4248C94.4783 12.5635 94.4957 12.7368 94.4957 12.9448C94.4957 13.1442 94.4783 13.3175 94.4437 13.4648H93.4037C93.369 13.3175 93.3517 13.1442 93.3517 12.9448C93.3517 12.7368 93.369 12.5635 93.4037 12.4248H93.0137C92.979 12.2775 92.9617 12.1042 92.9617 11.9048C92.9617 11.6968 92.979 11.5235 93.0137 11.3848H92.6237C92.589 11.2375 92.5717 11.0642 92.5717 10.8648C92.5717 10.6568 92.589 10.4835 92.6237 10.3448H91.3237C91.3583 10.4835 91.3757 10.6568 91.3757 10.8648C91.3757 11.0642 91.3583 11.2375 91.3237 11.3848C91.3583 11.5235 91.3757 11.6968 91.3757 11.9048C91.3757 12.1042 91.3583 12.2775 91.3237 12.4248C91.3583 12.5635 91.3757 12.7368 91.3757 12.9448C91.3757 13.1442 91.3583 13.3175 91.3237 13.4648H90.2837C90.249 13.3175 90.2317 13.1442 90.2317 12.9448C90.2317 12.7368 90.249 12.5635 90.2837 12.4248C90.249 12.2775 90.2317 12.1042 90.2317 11.9048C90.2317 11.6968 90.249 11.5235 90.2837 11.3848C90.249 11.2375 90.2317 11.0642 90.2317 10.8648C90.2317 10.6568 90.249 10.4835 90.2837 10.3448C90.249 10.1975 90.2317 10.0242 90.2317 9.82484C90.2317 9.61684 90.249 9.44351 90.2837 9.30484C90.249 9.15751 90.2317 8.98418 90.2317 8.78484C90.2317 8.57684 90.249 8.40351 90.2837 8.26484C90.249 8.11751 90.2317 7.94418 90.2317 7.74484C90.2317 7.53684 90.249 7.36351 90.2837 7.22484C90.249 7.07751 90.2317 6.90418 90.2317 6.70484C90.2317 6.49684 90.249 6.32351 90.2837 6.18484H93.9237C93.9583 6.32351 93.9757 6.49684 93.9757 6.70484C93.9757 6.90418 93.9583 7.07751 93.9237 7.22484H94.4437C94.4783 7.36351 94.4957 7.53684 94.4957 7.74484C94.4957 7.94418 94.4783 8.11751 94.4437 8.26484H94.1837C94.2183 8.40351 94.2357 8.57684 94.2357 8.78484C94.2357 8.98418 94.2183 9.15751 94.1837 9.30484H93.4037C93.4383 9.44351 93.4557 9.61684 93.4557 9.82484C93.4557 10.0242 93.4383 10.1975 93.4037 10.3448H93.6637C93.6983 10.4835 93.7157 10.6568 93.7157 10.8648C93.7157 11.0642 93.6983 11.2375 93.6637 11.3848H94.0537C94.0883 11.5235 94.1057 11.6968 94.1057 11.9048C94.1057 12.1042 94.0883 12.2775 94.0537 12.4248H94.4437ZM93.1437 9.30484C93.109 9.15751 93.0917 8.98418 93.0917 8.78484C93.0917 8.57684 93.109 8.40351 93.1437 8.26484C93.109 8.11751 93.0917 7.94418 93.0917 7.74484C93.0917 7.53684 93.109 7.36351 93.1437 7.22484H91.3237C91.3583 7.36351 91.3757 7.53684 91.3757 7.74484C91.3757 7.94418 91.3583 8.11751 91.3237 8.26484C91.3583 8.40351 91.3757 8.57684 91.3757 8.78484C91.3757 8.98418 91.3583 9.15751 91.3237 9.30484H93.1437ZM99.7008 6.70484C99.7008 6.90418 99.6834 7.07751 99.6488 7.22484C99.6834 7.36351 99.7008 7.53684 99.7008 7.74484C99.7008 7.94418 99.6834 8.11751 99.6488 8.26484H99.1288C99.1634 8.40351 99.1808 8.57684 99.1808 8.78484C99.1808 8.98418 99.1634 9.15751 99.1288 9.30484H98.6088C98.6434 9.44351 98.6608 9.61684 98.6608 9.82484C98.6608 10.0242 98.6434 10.1975 98.6088 10.3448H98.0888C98.1234 10.4835 98.1408 10.6568 98.1408 10.8648C98.1408 11.0642 98.1234 11.2375 98.0888 11.3848C98.1234 11.5235 98.1408 11.6968 98.1408 11.9048C98.1408 12.1042 98.1234 12.2775 98.0888 12.4248C98.1234 12.5635 98.1408 12.7368 98.1408 12.9448C98.1408 13.1442 98.1234 13.3175 98.0888 13.4648H97.0488C97.0141 13.3175 96.9968 13.1442 96.9968 12.9448C96.9968 12.7368 97.0141 12.5635 97.0488 12.4248C97.0141 12.2775 96.9968 12.1042 96.9968 11.9048C96.9968 11.6968 97.0141 11.5235 97.0488 11.3848C97.0141 11.2375 96.9968 11.0642 96.9968 10.8648C96.9968 10.6568 97.0141 10.4835 97.0488 10.3448H96.5288C96.4941 10.1975 96.4768 10.0242 96.4768 9.82484C96.4768 9.61684 96.4941 9.44351 96.5288 9.30484H96.0088C95.9741 9.15751 95.9568 8.98418 95.9568 8.78484C95.9568 8.57684 95.9741 8.40351 96.0088 8.26484H95.4888C95.4541 8.11751 95.4368 7.94418 95.4368 7.74484C95.4368 7.53684 95.4541 7.36351 95.4888 7.22484C95.4541 7.07751 95.4368 6.90418 95.4368 6.70484C95.4368 6.49684 95.4541 6.32351 95.4888 6.18484H96.5288C96.5634 6.32351 96.5808 6.49684 96.5808 6.70484C96.5808 6.90418 96.5634 7.07751 96.5288 7.22484C96.5634 7.36351 96.5808 7.53684 96.5808 7.74484C96.5808 7.94418 96.5634 8.11751 96.5288 8.26484H97.0488C97.0834 8.40351 97.1008 8.57684 97.1008 8.78484C97.1008 8.98418 97.0834 9.15751 97.0488 9.30484H98.0888C98.0541 9.15751 98.0368 8.98418 98.0368 8.78484C98.0368 8.57684 98.0541 8.40351 98.0888 8.26484H98.6088C98.5741 8.11751 98.5568 7.94418 98.5568 7.74484C98.5568 7.53684 98.5741 7.36351 98.6088 7.22484C98.5741 7.07751 98.5568 6.90418 98.5568 6.70484C98.5568 6.49684 98.5741 6.32351 98.6088 6.18484H99.6488C99.6834 6.32351 99.7008 6.49684 99.7008 6.70484Z" fill="#FF8101"/>
<rect width="0.595481" height="0.599759" transform="matrix(1 0 0 -1 39.6318 11.1992)" fill="#FF8101"/>
<rect width="0.595481" height="0.599759" transform="matrix(1 0 0 -1 37.8457 11.1992)" fill="#FF8101"/>
<rect width="0.595481" height="0.599759" transform="matrix(1 0 0 -1 44.9912 11.1992)" fill="#FF8101"/>
<rect width="0.595481" height="0.599759" transform="matrix(1 0 0 -1 43.8003 11.1992)" fill="#FFC183"/>
<rect width="0.595481" height="0.599759" transform="matrix(1 0 0 -1 39.0361 11.1992)" fill="#FFC183"/>
<rect width="0.595481" height="0.599759" transform="matrix(1 0 0 -1 38.4404 11.1992)" fill="#FFC183"/>
<rect width="0.595481" height="0.599759" transform="matrix(1 0 0 -1 44.3965 11.1992)" fill="#FFC183"/>
<rect width="0.595481" height="0.599759" transform="matrix(1 0 0 -1 43.2051 11.1992)" fill="#FF8101"/>
<rect width="0.595481" height="0.599759" transform="matrix(1 0 0 -1 42.6099 11.1992)" fill="#FFDCB9"/>
<rect width="0.595481" height="0.599759" transform="matrix(1 0 0 -1 42.0146 11.1992)" fill="#FFDCB9"/>
<rect width="0.595481" height="0.599759" transform="matrix(1 0 0 -1 41.4189 11.1992)" fill="#FFDCB9"/>
<rect width="0.595481" height="0.599759" transform="matrix(1 0 0 -1 40.8232 11.1992)" fill="#FFDCB9"/>
<rect width="0.595481" height="0.599759" transform="matrix(1 0 0 -1 40.228 11.1992)" fill="white"/>
<rect width="0.595481" height="0.599759" transform="matrix(1 0 0 -1 41.4189 14.1992)" fill="#FF8101"/>
<rect width="0.595481" height="0.599759" transform="matrix(1 0 0 -1 42.0146 13.5996)" fill="#FF8101"/>
<rect width="0.595481" height="0.599759" transform="matrix(1 0 0 -1 40.8232 13.5996)" fill="#FF8101"/>
<rect width="0.595481" height="0.599759" transform="matrix(1 0 0 -1 40.228 13)" fill="#FF8101"/>
<rect width="0.595481" height="0.599759" transform="matrix(1 0 0 -1 39.6318 12.3984)" fill="#FF8101"/>
<rect width="0.595481" height="0.599759" transform="matrix(1 0 0 -1 39.6318 11.7988)" fill="#FF8101"/>
<rect width="0.595481" height="0.599759" transform="matrix(1 0 0 -1 37.8457 11.7988)" fill="#FF8101"/>
<rect width="0.595481" height="0.599759" transform="matrix(1 0 0 -1 37.8457 12.3984)" fill="#FF8101"/>
<rect width="0.595481" height="0.599759" transform="matrix(1 0 0 -1 37.8457 13)" fill="#FF8101"/>
<rect width="0.595481" height="0.599759" transform="matrix(1 0 0 -1 38.4404 13.5996)" fill="#FF8101"/>
<rect width="0.595481" height="0.599759" transform="matrix(1 0 0 -1 39.0361 14.1992)" fill="#FF8101"/>
<rect width="0.595481" height="0.599759" transform="matrix(1 0 0 -1 39.6318 14.7969)" fill="#FF8101"/>
<rect width="0.595481" height="0.599759" transform="matrix(1 0 0 -1 40.228 15.3965)" fill="#FF8101"/>
<rect width="0.595481" height="0.599759" transform="matrix(1 0 0 -1 40.8232 15.998)" fill="#FF8101"/>
<rect width="0.595481" height="0.599759" transform="matrix(1 0 0 -1 41.4189 15.998)" fill="#FF8101"/>
<rect width="0.595481" height="0.599759" transform="matrix(1 0 0 -1 42.0146 15.998)" fill="#FF8101"/>
<rect width="0.595481" height="0.599759" transform="matrix(1 0 0 -1 42.6099 15.3965)" fill="#FF8101"/>
<rect width="0.595481" height="0.599759" transform="matrix(1 0 0 -1 43.2051 14.7969)" fill="#FF8101"/>
<rect width="0.595481" height="0.599759" transform="matrix(1 0 0 -1 43.8003 14.1992)" fill="#FF8101"/>
<rect width="0.595481" height="0.599759" transform="matrix(1 0 0 -1 44.3965 13.5996)" fill="#FF8101"/>
<rect width="0.595481" height="0.599759" transform="matrix(1 0 0 -1 44.9912 13)" fill="#FF8101"/>
<rect width="0.595481" height="0.599759" transform="matrix(1 0 0 -1 44.9912 12.3984)" fill="#FF8101"/>
<rect width="0.595481" height="0.599759" transform="matrix(1 0 0 -1 44.9912 11.7988)" fill="#FF8101"/>
<rect width="0.595481" height="0.599759" transform="matrix(1 0 0 -1 43.8003 11.7988)" fill="#FFC183"/>
<rect width="0.595481" height="0.599759" transform="matrix(1 0 0 -1 43.8003 12.3984)" fill="#FFC183"/>
<rect width="0.595481" height="0.599759" transform="matrix(1 0 0 -1 43.8003 13)" fill="#FFC183"/>
<rect width="0.595481" height="0.599759" transform="matrix(1 0 0 -1 43.2051 13)" fill="#FFC183"/>
<rect width="0.595481" height="0.599759" transform="matrix(1 0 0 -1 43.2051 13.5996)" fill="#FFC183"/>
<rect width="0.595481" height="0.599759" transform="matrix(1 0 0 -1 42.6099 13.5996)" fill="#FFC183"/>
<rect width="0.595481" height="0.599759" transform="matrix(1 0 0 -1 42.6099 14.1992)" fill="#FFC183"/>
<rect width="0.595481" height="0.599759" transform="matrix(1 0 0 -1 42.0146 14.1992)" fill="#FFC183"/>
<rect width="0.595481" height="0.599759" transform="matrix(1 0 0 -1 42.0146 14.7969)" fill="#FFC183"/>
<rect width="0.595481" height="0.599759" transform="matrix(1 0 0 -1 41.4189 14.7969)" fill="#FFC183"/>
<rect width="0.595481" height="0.599759" transform="matrix(1 0 0 -1 40.8232 14.7969)" fill="#FFC183"/>
<rect width="0.595481" height="0.599759" transform="matrix(1 0 0 -1 40.8232 14.1992)" fill="#FFC183"/>
<rect width="0.595481" height="0.599759" transform="matrix(1 0 0 -1 40.228 14.1992)" fill="#FFC183"/>
<rect width="0.595481" height="0.599759" transform="matrix(1 0 0 -1 40.228 13.5996)" fill="#FFC183"/>
<rect width="0.595481" height="0.599759" transform="matrix(1 0 0 -1 39.6318 13.5996)" fill="#FFC183"/>
<rect width="0.595481" height="0.599759" transform="matrix(1 0 0 -1 39.6318 13)" fill="#FFC183"/>
<rect width="0.595481" height="0.599759" transform="matrix(1 0 0 -1 39.0361 13)" fill="#FFC183"/>
<rect width="0.595481" height="0.599759" transform="matrix(1 0 0 -1 39.0361 12.3984)" fill="#FFC183"/>
<rect width="0.595481" height="0.599759" transform="matrix(1 0 0 -1 39.0361 11.7988)" fill="#FFC183"/>
<rect width="0.595481" height="0.599759" transform="matrix(1 0 0 -1 38.4404 11.7988)" fill="#FFC183"/>
<rect width="0.595481" height="0.599759" transform="matrix(1 0 0 -1 38.4404 12.3984)" fill="#FFC183"/>
<rect width="0.595481" height="0.599759" transform="matrix(1 0 0 -1 38.4404 13)" fill="#E69A4D"/>
<rect width="0.595481" height="0.599759" transform="matrix(1 0 0 -1 39.0361 13.5996)" fill="#E69A4D"/>
<rect width="0.595481" height="0.599759" transform="matrix(1 0 0 -1 39.6318 14.1992)" fill="#E69A4D"/>
<rect width="0.595481" height="0.599759" transform="matrix(1 0 0 -1 40.228 14.7969)" fill="#E69A4D"/>
<rect width="0.595481" height="0.599759" transform="matrix(1 0 0 -1 40.8232 15.3965)" fill="#E69A4D"/>
<rect width="0.595481" height="0.599759" transform="matrix(1 0 0 -1 41.4189 15.3965)" fill="#E69A4D"/>
<rect width="0.595481" height="0.599759" transform="matrix(1 0 0 -1 42.0146 15.3965)" fill="#E69A4D"/>
<rect width="0.595481" height="0.599759" transform="matrix(1 0 0 -1 42.6099 14.7969)" fill="#E69A4D"/>
<rect width="0.595481" height="0.599759" transform="matrix(1 0 0 -1 43.2051 14.1992)" fill="#E69A4D"/>
<rect width="0.595481" height="0.599759" transform="matrix(1 0 0 -1 43.8003 13.5996)" fill="#E69A4D"/>
<rect width="0.595481" height="0.599759" transform="matrix(1 0 0 -1 44.3965 13)" fill="#E69A4D"/>
<rect width="0.595481" height="0.599759" transform="matrix(1 0 0 -1 44.3965 11.7988)" fill="#FFC183"/>
<rect width="0.595481" height="0.599759" transform="matrix(1 0 0 -1 44.3965 12.3984)" fill="#FFC183"/>
<rect width="0.595481" height="0.599759" transform="matrix(1 0 0 -1 43.2051 11.7988)" fill="#FF8101"/>
<rect width="0.595481" height="0.599759" transform="matrix(1 0 0 -1 43.2051 12.3984)" fill="#FF8101"/>
<rect width="0.595481" height="0.599759" transform="matrix(1 0 0 -1 42.6099 12.3984)" fill="#FFDCB9"/>
<rect width="0.595481" height="0.599759" transform="matrix(1 0 0 -1 42.6099 11.7988)" fill="#FFDCB9"/>
<rect width="0.595481" height="0.599759" transform="matrix(1 0 0 -1 42.0146 12.3984)" fill="#FFDCB9"/>
<rect width="0.595481" height="0.599759" transform="matrix(1 0 0 -1 42.0146 11.7988)" fill="#FFDCB9"/>
<rect width="0.595481" height="0.599759" transform="matrix(1 0 0 -1 42.0146 13)" fill="#FFDCB9"/>
<rect width="0.595481" height="0.599759" transform="matrix(1 0 0 -1 41.4189 12.3984)" fill="#FFDCB9"/>
<rect width="0.595481" height="0.599759" transform="matrix(1 0 0 -1 41.4189 11.7988)" fill="#FFDCB9"/>
<rect width="0.595481" height="0.599759" transform="matrix(1 0 0 -1 41.4189 13)" fill="#FFDCB9"/>
<rect width="0.595481" height="0.599759" transform="matrix(1 0 0 -1 41.4189 13.5996)" fill="#FFDCB9"/>
<rect width="0.595481" height="0.599759" transform="matrix(1 0 0 -1 40.8232 12.3984)" fill="#FFDCB9"/>
<rect width="0.595481" height="0.599759" transform="matrix(1 0 0 -1 40.8232 11.7988)" fill="#FFDCB9"/>
<rect width="0.595481" height="0.599759" transform="matrix(1 0 0 -1 40.8232 13)" fill="#FFDCB9"/>
<rect width="0.595481" height="0.599759" transform="matrix(1 0 0 -1 40.228 12.3984)" fill="white"/>
<rect width="0.595481" height="0.599759" transform="matrix(1 0 0 -1 40.228 11.7988)" fill="white"/>
<rect width="0.595481" height="0.599759" transform="matrix(1 0 0 -1 42.6099 13)" fill="#FF8101"/>
<rect x="39.6318" y="10.002" width="0.595481" height="0.599759" fill="#FF8101"/>
<rect x="37.8457" y="10.002" width="0.595481" height="0.599759" fill="#FF8101"/>
<rect x="44.9912" y="10.002" width="0.595481" height="0.599759" fill="#FF8101"/>
<rect x="43.8003" y="10.002" width="0.595481" height="0.599759" fill="#FFC183"/>
<rect x="39.0361" y="10.002" width="0.595481" height="0.599759" fill="#FFC183"/>
<rect x="38.4404" y="10.002" width="0.595481" height="0.599759" fill="#FFC183"/>
<rect x="44.3965" y="10.002" width="0.595481" height="0.599759" fill="#FFC183"/>
<rect x="43.2051" y="10.002" width="0.595481" height="0.599759" fill="#FF8101"/>
<rect x="42.6099" y="10.002" width="0.595481" height="0.599759" fill="#FFDCB9"/>
<rect x="42.0146" y="10.002" width="0.595481" height="0.599759" fill="#FFDCB9"/>
<rect x="41.4189" y="10.002" width="0.595481" height="0.599759" fill="#FFDCB9"/>
<rect x="40.8232" y="10.002" width="0.595481" height="0.599759" fill="#FFDCB9"/>
<rect x="40.228" y="10.002" width="0.595481" height="0.599759" fill="white"/>
<rect x="41.4189" y="7.00195" width="0.595481" height="0.599759" fill="#FF8101"/>
<rect x="42.0146" y="7.60156" width="0.595481" height="0.599759" fill="#FF8101"/>
<rect x="40.8232" y="7.60156" width="0.595481" height="0.599759" fill="#FF8101"/>
<rect x="40.228" y="8.20117" width="0.595481" height="0.599759" fill="#FF8101"/>
<rect x="39.6318" y="8.80273" width="0.595481" height="0.599759" fill="#FF8101"/>
<rect x="39.6318" y="9.40039" width="0.595481" height="0.599759" fill="#FF8101"/>
<rect x="37.8457" y="9.40039" width="0.595481" height="0.599759" fill="#FF8101"/>
<rect x="37.8457" y="8.80273" width="0.595481" height="0.599759" fill="#FF8101"/>
<rect x="37.8457" y="8.20117" width="0.595481" height="0.599759" fill="#FF8101"/>
<rect x="38.4404" y="7.60156" width="0.595481" height="0.599759" fill="#FF8101"/>
<rect x="39.0361" y="7.00195" width="0.595481" height="0.599759" fill="#FF8101"/>
<rect x="39.6318" y="6.40234" width="0.595481" height="0.599759" fill="#FF8101"/>
<rect x="40.228" y="5.80273" width="0.595481" height="0.599759" fill="#FF8101"/>
<rect x="40.8232" y="5.20312" width="0.595481" height="0.599759" fill="#FF8101"/>
<rect x="41.4189" y="5.20312" width="0.595481" height="0.599759" fill="#FF8101"/>
<rect x="42.0146" y="5.20312" width="0.595481" height="0.599759" fill="#FF8101"/>
<rect x="42.6099" y="5.80273" width="0.595481" height="0.599759" fill="#FF8101"/>
<rect x="43.2051" y="6.40234" width="0.595481" height="0.599759" fill="#FF8101"/>
<rect x="43.8003" y="7.00195" width="0.595481" height="0.599759" fill="#FF8101"/>
<rect x="44.3965" y="7.60156" width="0.595481" height="0.599759" fill="#FF8101"/>
<rect x="44.9912" y="8.20117" width="0.595481" height="0.599759" fill="#FF8101"/>
<rect x="44.9912" y="8.80273" width="0.595481" height="0.599759" fill="#FF8101"/>
<rect x="44.9912" y="9.40039" width="0.595481" height="0.599759" fill="#FF8101"/>
<rect x="43.8003" y="9.40039" width="0.595481" height="0.599759" fill="#FFC183"/>
<rect x="43.8003" y="8.80273" width="0.595481" height="0.599759" fill="#FFC183"/>
<rect x="43.8003" y="8.20117" width="0.595481" height="0.599759" fill="#FFC183"/>
<rect x="43.2051" y="8.20117" width="0.595481" height="0.599759" fill="#FFC183"/>
<rect x="43.2051" y="7.60156" width="0.595481" height="0.599759" fill="#FFC183"/>
<rect x="42.6099" y="7.60156" width="0.595481" height="0.599759" fill="#FFC183"/>
<rect x="42.6099" y="7.00195" width="0.595481" height="0.599759" fill="#FFC183"/>
<rect x="42.0146" y="7.00195" width="0.595481" height="0.599759" fill="#FFC183"/>
<rect x="42.0146" y="6.40234" width="0.595481" height="0.599759" fill="#FFC183"/>
<rect x="41.4189" y="6.40234" width="0.595481" height="0.599759" fill="#FFC183"/>
<rect x="40.8232" y="6.40234" width="0.595481" height="0.599759" fill="#FFC183"/>
<rect x="40.8232" y="7.00195" width="0.595481" height="0.599759" fill="#FFC183"/>
<rect x="40.228" y="7.00195" width="0.595481" height="0.599759" fill="#FFC183"/>
<rect x="40.228" y="7.60156" width="0.595481" height="0.599759" fill="#FFC183"/>
<rect x="39.6318" y="7.60156" width="0.595481" height="0.599759" fill="#FFC183"/>
<rect x="39.6318" y="8.20117" width="0.595481" height="0.599759" fill="#FFC183"/>
<rect x="39.0361" y="8.20117" width="0.595481" height="0.599759" fill="#FFC183"/>
<rect x="39.0361" y="8.80273" width="0.595481" height="0.599759" fill="#FFC183"/>
<rect x="39.0361" y="9.40039" width="0.595481" height="0.599759" fill="#FFC183"/>
<rect x="38.4404" y="9.40039" width="0.595481" height="0.599759" fill="#FFC183"/>
<rect x="38.4404" y="8.80273" width="0.595481" height="0.599759" fill="#FFC183"/>
<rect x="38.4404" y="8.20117" width="0.595481" height="0.599759" fill="#E69A4D"/>
<rect x="39.0361" y="7.60156" width="0.595481" height="0.599759" fill="#E69A4D"/>
<rect x="39.6318" y="7.00195" width="0.595481" height="0.599759" fill="#E69A4D"/>
<rect x="40.228" y="6.40234" width="0.595481" height="0.599759" fill="#E69A4D"/>
<rect x="40.8232" y="5.80273" width="0.595481" height="0.599759" fill="#E69A4D"/>
<rect x="41.4189" y="5.80273" width="0.595481" height="0.599759" fill="#E69A4D"/>
<rect x="42.0146" y="5.80273" width="0.595481" height="0.599759" fill="#E69A4D"/>
<rect x="42.6099" y="6.40234" width="0.595481" height="0.599759" fill="#E69A4D"/>
<rect x="43.2051" y="7.00195" width="0.595481" height="0.599759" fill="#E69A4D"/>
<rect x="43.8003" y="7.60156" width="0.595481" height="0.599759" fill="#E69A4D"/>
<rect x="44.3965" y="8.20117" width="0.595481" height="0.599759" fill="#E69A4D"/>
<rect x="44.3965" y="9.40039" width="0.595481" height="0.599759" fill="#FFC183"/>
<rect x="44.3965" y="8.80273" width="0.595481" height="0.599759" fill="#FFC183"/>
<rect x="43.2051" y="9.40039" width="0.595481" height="0.599759" fill="#FF8101"/>
<rect x="43.2051" y="8.80273" width="0.595481" height="0.599759" fill="#FF8101"/>
<rect x="42.6099" y="8.80273" width="0.595481" height="0.599759" fill="#FFDCB9"/>
<rect x="42.6099" y="9.40039" width="0.595481" height="0.599759" fill="#FFDCB9"/>
<rect x="42.0146" y="8.80273" width="0.595481" height="0.599759" fill="#FFDCB9"/>
<rect x="42.0146" y="9.40039" width="0.595481" height="0.599759" fill="#FFDCB9"/>
<rect x="42.0146" y="8.20117" width="0.595481" height="0.599759" fill="#FFDCB9"/>
<rect x="41.4189" y="8.80273" width="0.595481" height="0.599759" fill="#FFDCB9"/>
<rect x="41.4189" y="9.40039" width="0.595481" height="0.599759" fill="#FFDCB9"/>
<rect x="41.4189" y="8.20117" width="0.595481" height="0.599759" fill="#FFDCB9"/>
<rect x="41.4189" y="7.60156" width="0.595481" height="0.599759" fill="#FFDCB9"/>
<rect x="40.8232" y="8.80273" width="0.595481" height="0.599759" fill="#FFDCB9"/>
<rect x="40.8232" y="9.40039" width="0.595481" height="0.599759" fill="#FFDCB9"/>
<rect x="40.8232" y="8.20117" width="0.595481" height="0.599759" fill="#FFDCB9"/>
<rect x="40.228" y="8.80273" width="0.595481" height="0.599759" fill="white"/>
<rect x="40.228" y="9.40039" width="0.595481" height="0.599759" fill="white"/>
<rect x="42.6099" y="8.20117" width="0.595481" height="0.599759" fill="#FF8101"/>
</svg>
