<svg width="142" height="20" viewBox="0 0 142 20" fill="none" xmlns="http://www.w3.org/2000/svg">
<path d="M0.257015 6.40463V4.51975H2.17699H2.42699V4.26975V2.38488H4.34696H4.59696V2.13488V0.25H136.47V2.13488V2.38488H136.72H138.64V4.26975V4.51975H138.89H140.81V6.40463V7.7987V12.1313V13.5254V15.4102H138.89H138.64V15.6602V17.5451H136.72H136.47V17.7951V19.68H4.59696V17.7951V17.5451H4.34696H2.42699V15.6602V15.4102H2.17699H0.257015L0.257018 13.5254L0.257012 13.5241L0.25 12.1313V12.1307V7.79933V7.7987L0.257015 6.40589V6.40463Z" fill="#FF0000" fill-opacity="0.13" stroke="#FF0000" stroke-width="0.5"/>
<path d="M66.68 7.76C66.7147 7.89867 66.732 8.072 66.732 8.28C66.732 8.47933 66.7147 8.65267 66.68 8.8C66.7147 8.93867 66.732 9.112 66.732 9.32C66.732 9.51933 66.7147 9.69267 66.68 9.84C66.7147 9.97867 66.732 10.152 66.732 10.36C66.732 10.5593 66.7147 10.7327 66.68 10.88C66.7147 11.0187 66.732 11.192 66.732 11.4C66.732 11.5993 66.7147 11.7727 66.68 11.92C66.7147 12.0587 66.732 12.232 66.732 12.44C66.732 12.6393 66.7147 12.8127 66.68 12.96C66.7147 13.0987 66.732 13.272 66.732 13.48C66.732 13.6793 66.7147 13.8527 66.68 14H65.64C65.6053 13.8527 65.588 13.6793 65.588 13.48C65.588 13.272 65.6053 13.0987 65.64 12.96C65.6053 12.8127 65.588 12.6393 65.588 12.44C65.588 12.232 65.6053 12.0587 65.64 11.92C65.6053 11.7727 65.588 11.5993 65.588 11.4C65.588 11.192 65.6053 11.0187 65.64 10.88C65.6053 10.7327 65.588 10.5593 65.588 10.36C65.588 10.152 65.6053 9.97867 65.64 9.84C65.6053 9.69267 65.588 9.51933 65.588 9.32C65.588 9.112 65.6053 8.93867 65.64 8.8H65.25C65.2847 8.93867 65.302 9.112 65.302 9.32C65.302 9.51933 65.2847 9.69267 65.25 9.84C65.2847 9.97867 65.302 10.152 65.302 10.36C65.302 10.5593 65.2847 10.7327 65.25 10.88H64.99C65.0247 11.0187 65.042 11.192 65.042 11.4C65.042 11.5993 65.0247 11.7727 64.99 11.92C65.0247 12.0587 65.042 12.232 65.042 12.44C65.042 12.6393 65.0247 12.8127 64.99 12.96H64.21C64.1753 12.8127 64.158 12.6393 64.158 12.44C64.158 12.232 64.1753 12.0587 64.21 11.92C64.1753 11.7727 64.158 11.5993 64.158 11.4C64.158 11.192 64.1753 11.0187 64.21 10.88H63.95C63.9153 10.7327 63.898 10.5593 63.898 10.36C63.898 10.152 63.9153 9.97867 63.95 9.84C63.9153 9.69267 63.898 9.51933 63.898 9.32C63.898 9.112 63.9153 8.93867 63.95 8.8H63.56C63.5947 8.93867 63.612 9.112 63.612 9.32C63.612 9.51933 63.5947 9.69267 63.56 9.84C63.5947 9.97867 63.612 10.152 63.612 10.36C63.612 10.5593 63.5947 10.7327 63.56 10.88C63.5947 11.0187 63.612 11.192 63.612 11.4C63.612 11.5993 63.5947 11.7727 63.56 11.92C63.5947 12.0587 63.612 12.232 63.612 12.44C63.612 12.6393 63.5947 12.8127 63.56 12.96C63.5947 13.0987 63.612 13.272 63.612 13.48C63.612 13.6793 63.5947 13.8527 63.56 14H62.52C62.4853 13.8527 62.468 13.6793 62.468 13.48C62.468 13.272 62.4853 13.0987 62.52 12.96C62.4853 12.8127 62.468 12.6393 62.468 12.44C62.468 12.232 62.4853 12.0587 62.52 11.92C62.4853 11.7727 62.468 11.5993 62.468 11.4C62.468 11.192 62.4853 11.0187 62.52 10.88C62.4853 10.7327 62.468 10.5593 62.468 10.36C62.468 10.152 62.4853 9.97867 62.52 9.84C62.4853 9.69267 62.468 9.51933 62.468 9.32C62.468 9.112 62.4853 8.93867 62.52 8.8C62.4853 8.65267 62.468 8.47933 62.468 8.28C62.468 8.072 62.4853 7.89867 62.52 7.76C62.4853 7.61267 62.468 7.43933 62.468 7.24C62.468 7.032 62.4853 6.85867 62.52 6.72H63.82C63.8547 6.85867 63.872 7.032 63.872 7.24C63.872 7.43933 63.8547 7.61267 63.82 7.76H64.21C64.2447 7.89867 64.262 8.072 64.262 8.28C64.262 8.47933 64.2447 8.65267 64.21 8.8H64.405C64.4397 8.93867 64.457 9.112 64.457 9.32C64.457 9.51933 64.4397 9.69267 64.405 9.84H64.795C64.7603 9.69267 64.743 9.51933 64.743 9.32C64.743 9.112 64.7603 8.93867 64.795 8.8H64.99C64.9553 8.65267 64.938 8.47933 64.938 8.28C64.938 8.072 64.9553 7.89867 64.99 7.76H65.38C65.3453 7.61267 65.328 7.43933 65.328 7.24C65.328 7.032 65.3453 6.85867 65.38 6.72H66.68C66.7147 6.85867 66.732 7.032 66.732 7.24C66.732 7.43933 66.7147 7.61267 66.68 7.76ZM71.9371 7.24C71.9371 7.43933 71.9197 7.61267 71.8851 7.76C71.9197 7.89867 71.9371 8.072 71.9371 8.28C71.9371 8.47933 71.9197 8.65267 71.8851 8.8H71.3651C71.3997 8.93867 71.4171 9.112 71.4171 9.32C71.4171 9.51933 71.3997 9.69267 71.3651 9.84H70.8451C70.8797 9.97867 70.8971 10.152 70.8971 10.36C70.8971 10.5593 70.8797 10.7327 70.8451 10.88H70.3251C70.3597 11.0187 70.3771 11.192 70.3771 11.4C70.3771 11.5993 70.3597 11.7727 70.3251 11.92C70.3597 12.0587 70.3771 12.232 70.3771 12.44C70.3771 12.6393 70.3597 12.8127 70.3251 12.96C70.3597 13.0987 70.3771 13.272 70.3771 13.48C70.3771 13.6793 70.3597 13.8527 70.3251 14H69.2851C69.2504 13.8527 69.2331 13.6793 69.2331 13.48C69.2331 13.272 69.2504 13.0987 69.2851 12.96C69.2504 12.8127 69.2331 12.6393 69.2331 12.44C69.2331 12.232 69.2504 12.0587 69.2851 11.92C69.2504 11.7727 69.2331 11.5993 69.2331 11.4C69.2331 11.192 69.2504 11.0187 69.2851 10.88H68.7651C68.7304 10.7327 68.7131 10.5593 68.7131 10.36C68.7131 10.152 68.7304 9.97867 68.7651 9.84H68.2451C68.2104 9.69267 68.1931 9.51933 68.1931 9.32C68.1931 9.112 68.2104 8.93867 68.2451 8.8H67.7251C67.6904 8.65267 67.6731 8.47933 67.6731 8.28C67.6731 8.072 67.6904 7.89867 67.7251 7.76C67.6904 7.61267 67.6731 7.43933 67.6731 7.24C67.6731 7.032 67.6904 6.85867 67.7251 6.72H68.7651C68.7997 6.85867 68.8171 7.032 68.8171 7.24C68.8171 7.43933 68.7997 7.61267 68.7651 7.76C68.7997 7.89867 68.8171 8.072 68.8171 8.28C68.8171 8.47933 68.7997 8.65267 68.7651 8.8H69.2851C69.3197 8.93867 69.3371 9.112 69.3371 9.32C69.3371 9.51933 69.3197 9.69267 69.2851 9.84H70.3251C70.2904 9.69267 70.2731 9.51933 70.2731 9.32C70.2731 9.112 70.2904 8.93867 70.3251 8.8H70.8451C70.8104 8.65267 70.7931 8.47933 70.7931 8.28C70.7931 8.072 70.8104 7.89867 70.8451 7.76C70.8104 7.61267 70.7931 7.43933 70.7931 7.24C70.7931 7.032 70.8104 6.85867 70.8451 6.72H71.8851C71.9197 6.85867 71.9371 7.032 71.9371 7.24ZM77.1422 7.24C77.1422 7.43933 77.1248 7.61267 77.0902 7.76H75.5302C75.5648 7.89867 75.5822 8.072 75.5822 8.28C75.5822 8.47933 75.5648 8.65267 75.5302 8.8C75.5648 8.93867 75.5822 9.112 75.5822 9.32C75.5822 9.51933 75.5648 9.69267 75.5302 9.84C75.5648 9.97867 75.5822 10.152 75.5822 10.36C75.5822 10.5593 75.5648 10.7327 75.5302 10.88C75.5648 11.0187 75.5822 11.192 75.5822 11.4C75.5822 11.5993 75.5648 11.7727 75.5302 11.92C75.5648 12.0587 75.5822 12.232 75.5822 12.44C75.5822 12.6393 75.5648 12.8127 75.5302 12.96C75.5648 13.0987 75.5822 13.272 75.5822 13.48C75.5822 13.6793 75.5648 13.8527 75.5302 14H74.4902C74.4555 13.8527 74.4382 13.6793 74.4382 13.48C74.4382 13.272 74.4555 13.0987 74.4902 12.96C74.4555 12.8127 74.4382 12.6393 74.4382 12.44C74.4382 12.232 74.4555 12.0587 74.4902 11.92C74.4555 11.7727 74.4382 11.5993 74.4382 11.4C74.4382 11.192 74.4555 11.0187 74.4902 10.88C74.4555 10.7327 74.4382 10.5593 74.4382 10.36C74.4382 10.152 74.4555 9.97867 74.4902 9.84C74.4555 9.69267 74.4382 9.51933 74.4382 9.32C74.4382 9.112 74.4555 8.93867 74.4902 8.8C74.4555 8.65267 74.4382 8.47933 74.4382 8.28C74.4382 8.072 74.4555 7.89867 74.4902 7.76H72.9302C72.8955 7.61267 72.8782 7.43933 72.8782 7.24C72.8782 7.032 72.8955 6.85867 72.9302 6.72H77.0902C77.1248 6.85867 77.1422 7.032 77.1422 7.24ZM82.2952 7.76C82.3299 7.89867 82.3472 8.072 82.3472 8.28C82.3472 8.47933 82.3299 8.65267 82.2952 8.8C82.3299 8.93867 82.3472 9.112 82.3472 9.32C82.3472 9.51933 82.3299 9.69267 82.2952 9.84C82.3299 9.97867 82.3472 10.152 82.3472 10.36C82.3472 10.5593 82.3299 10.7327 82.2952 10.88C82.3299 11.0187 82.3472 11.192 82.3472 11.4C82.3472 11.5993 82.3299 11.7727 82.2952 11.92C82.3299 12.0587 82.3472 12.232 82.3472 12.44C82.3472 12.6393 82.3299 12.8127 82.2952 12.96C82.3299 13.0987 82.3472 13.272 82.3472 13.48C82.3472 13.6793 82.3299 13.8527 82.2952 14H81.2552C81.2206 13.8527 81.2032 13.6793 81.2032 13.48C81.2032 13.272 81.2206 13.0987 81.2552 12.96C81.2206 12.8127 81.2032 12.6393 81.2032 12.44C81.2032 12.232 81.2206 12.0587 81.2552 11.92C81.2206 11.7727 81.2032 11.5993 81.2032 11.4C81.2032 11.192 81.2206 11.0187 81.2552 10.88H79.1752C79.2099 11.0187 79.2272 11.192 79.2272 11.4C79.2272 11.5993 79.2099 11.7727 79.1752 11.92C79.2099 12.0587 79.2272 12.232 79.2272 12.44C79.2272 12.6393 79.2099 12.8127 79.1752 12.96C79.2099 13.0987 79.2272 13.272 79.2272 13.48C79.2272 13.6793 79.2099 13.8527 79.1752 14H78.1352C78.1006 13.8527 78.0832 13.6793 78.0832 13.48C78.0832 13.272 78.1006 13.0987 78.1352 12.96C78.1006 12.8127 78.0832 12.6393 78.0832 12.44C78.0832 12.232 78.1006 12.0587 78.1352 11.92C78.1006 11.7727 78.0832 11.5993 78.0832 11.4C78.0832 11.192 78.1006 11.0187 78.1352 10.88C78.1006 10.7327 78.0832 10.5593 78.0832 10.36C78.0832 10.152 78.1006 9.97867 78.1352 9.84C78.1006 9.69267 78.0832 9.51933 78.0832 9.32C78.0832 9.112 78.1006 8.93867 78.1352 8.8C78.1006 8.65267 78.0832 8.47933 78.0832 8.28C78.0832 8.072 78.1006 7.89867 78.1352 7.76C78.1006 7.61267 78.0832 7.43933 78.0832 7.24C78.0832 7.032 78.1006 6.85867 78.1352 6.72H79.1752C79.2099 6.85867 79.2272 7.032 79.2272 7.24C79.2272 7.43933 79.2099 7.61267 79.1752 7.76C79.2099 7.89867 79.2272 8.072 79.2272 8.28C79.2272 8.47933 79.2099 8.65267 79.1752 8.8C79.2099 8.93867 79.2272 9.112 79.2272 9.32C79.2272 9.51933 79.2099 9.69267 79.1752 9.84H81.2552C81.2206 9.69267 81.2032 9.51933 81.2032 9.32C81.2032 9.112 81.2206 8.93867 81.2552 8.8C81.2206 8.65267 81.2032 8.47933 81.2032 8.28C81.2032 8.072 81.2206 7.89867 81.2552 7.76C81.2206 7.61267 81.2032 7.43933 81.2032 7.24C81.2032 7.032 81.2206 6.85867 81.2552 6.72H82.2952C82.3299 6.85867 82.3472 7.032 82.3472 7.24C82.3472 7.43933 82.3299 7.61267 82.2952 7.76ZM86.7203 12.96C86.755 13.0987 86.7723 13.272 86.7723 13.48C86.7723 13.6793 86.755 13.8527 86.7203 14H84.1203C84.0856 13.8527 84.0683 13.6793 84.0683 13.48C84.0683 13.272 84.0856 13.0987 84.1203 12.96H84.9003C84.8656 12.8127 84.8483 12.6393 84.8483 12.44C84.8483 12.232 84.8656 12.0587 84.9003 11.92C84.8656 11.7727 84.8483 11.5993 84.8483 11.4C84.8483 11.192 84.8656 11.0187 84.9003 10.88C84.8656 10.7327 84.8483 10.5593 84.8483 10.36C84.8483 10.152 84.8656 9.97867 84.9003 9.84C84.8656 9.69267 84.8483 9.51933 84.8483 9.32C84.8483 9.112 84.8656 8.93867 84.9003 8.8C84.8656 8.65267 84.8483 8.47933 84.8483 8.28C84.8483 8.072 84.8656 7.89867 84.9003 7.76H84.1203C84.0856 7.61267 84.0683 7.43933 84.0683 7.24C84.0683 7.032 84.0856 6.85867 84.1203 6.72H86.7203C86.755 6.85867 86.7723 7.032 86.7723 7.24C86.7723 7.43933 86.755 7.61267 86.7203 7.76H85.9403C85.975 7.89867 85.9923 8.072 85.9923 8.28C85.9923 8.47933 85.975 8.65267 85.9403 8.8C85.975 8.93867 85.9923 9.112 85.9923 9.32C85.9923 9.51933 85.975 9.69267 85.9403 9.84C85.975 9.97867 85.9923 10.152 85.9923 10.36C85.9923 10.5593 85.975 10.7327 85.9403 10.88C85.975 11.0187 85.9923 11.192 85.9923 11.4C85.9923 11.5993 85.975 11.7727 85.9403 11.92C85.975 12.0587 85.9923 12.232 85.9923 12.44C85.9923 12.6393 85.975 12.8127 85.9403 12.96H86.7203ZM92.7054 11.92C92.7401 12.0587 92.7574 12.232 92.7574 12.44C92.7574 12.6393 92.7401 12.8127 92.7054 12.96H92.1854C92.2201 13.0987 92.2374 13.272 92.2374 13.48C92.2374 13.6793 92.2201 13.8527 92.1854 14H89.5854C89.5507 13.8527 89.5334 13.6793 89.5334 13.48C89.5334 13.272 89.5507 13.0987 89.5854 12.96H89.0654C89.0307 12.8127 89.0134 12.6393 89.0134 12.44C89.0134 12.232 89.0307 12.0587 89.0654 11.92H88.5454C88.5107 11.7727 88.4934 11.5993 88.4934 11.4C88.4934 11.192 88.5107 11.0187 88.5454 10.88C88.5107 10.7327 88.4934 10.5593 88.4934 10.36C88.4934 10.152 88.5107 9.97867 88.5454 9.84C88.5107 9.69267 88.4934 9.51933 88.4934 9.32C88.4934 9.112 88.5107 8.93867 88.5454 8.8H89.0654C89.0307 8.65267 89.0134 8.47933 89.0134 8.28C89.0134 8.072 89.0307 7.89867 89.0654 7.76H89.5854C89.5507 7.61267 89.5334 7.43933 89.5334 7.24C89.5334 7.032 89.5507 6.85867 89.5854 6.72H92.1854C92.2201 6.85867 92.2374 7.032 92.2374 7.24C92.2374 7.43933 92.2201 7.61267 92.1854 7.76H92.7054C92.7401 7.89867 92.7574 8.072 92.7574 8.28C92.7574 8.47933 92.7401 8.65267 92.7054 8.8H91.6654C91.6307 8.65267 91.6134 8.47933 91.6134 8.28C91.6134 8.072 91.6307 7.89867 91.6654 7.76H90.1054C90.1401 7.89867 90.1574 8.072 90.1574 8.28C90.1574 8.47933 90.1401 8.65267 90.1054 8.8H89.5854C89.6201 8.93867 89.6374 9.112 89.6374 9.32C89.6374 9.51933 89.6201 9.69267 89.5854 9.84C89.6201 9.97867 89.6374 10.152 89.6374 10.36C89.6374 10.5593 89.6201 10.7327 89.5854 10.88C89.6201 11.0187 89.6374 11.192 89.6374 11.4C89.6374 11.5993 89.6201 11.7727 89.5854 11.92H90.1054C90.1401 12.0587 90.1574 12.232 90.1574 12.44C90.1574 12.6393 90.1401 12.8127 90.1054 12.96H91.6654C91.6307 12.8127 91.6134 12.6393 91.6134 12.44C91.6134 12.232 91.6307 12.0587 91.6654 11.92H92.7054Z" fill="#FF0000"/>
<rect width="0.598975" height="0.599901" transform="matrix(1 0 0 -1 47.7959 9.99805)" fill="#FF0000"/>
<rect width="0.598975" height="0.599901" transform="matrix(1 0 0 -1 46 10)" fill="#FF0000"/>
<rect width="0.598975" height="0.599901" transform="matrix(1 0 0 -1 53.1875 9.99805)" fill="#FF0000"/>
<rect width="0.598975" height="0.599901" transform="matrix(1 0 0 -1 51.9893 9.99805)" fill="#FF6C6C"/>
<rect width="0.598975" height="0.599901" transform="matrix(1 0 0 -1 47.1973 9.99805)" fill="#FF6C6C"/>
<rect width="0.598975" height="0.599901" transform="matrix(1 0 0 -1 46.5981 10)" fill="#FF6C6C"/>
<rect width="0.598975" height="0.599901" transform="matrix(1 0 0 -1 52.5894 9.99805)" fill="#FF6C6C"/>
<rect width="0.598975" height="0.599901" transform="matrix(1 0 0 -1 51.3901 9.99805)" fill="#FF0000"/>
<rect width="0.598975" height="0.599901" transform="matrix(1 0 0 -1 50.792 9.99805)" fill="#FFAAAA"/>
<rect width="0.598975" height="0.599901" transform="matrix(1 0 0 -1 50.1929 10)" fill="#FFAAAA"/>
<rect width="0.598975" height="0.599901" transform="matrix(1 0 0 -1 49.5942 9.99805)" fill="#FFAAAA"/>
<rect width="0.598975" height="0.599901" transform="matrix(1 0 0 -1 48.9951 9.99805)" fill="#FFAAAA"/>
<rect width="0.598975" height="0.599901" transform="matrix(1 0 0 -1 48.396 9.99805)" fill="white"/>
<rect width="0.598975" height="0.599901" transform="matrix(1 0 0 -1 49.5942 12.998)" fill="#FF0000"/>
<rect width="0.598975" height="0.599901" transform="matrix(1 0 0 -1 50.1929 12.3984)" fill="#FF0000"/>
<rect width="0.598975" height="0.599901" transform="matrix(1 0 0 -1 48.9951 12.3984)" fill="#FF0000"/>
<rect width="0.598975" height="0.599901" transform="matrix(1 0 0 -1 48.396 11.7988)" fill="#FF0000"/>
<rect width="0.598975" height="0.599901" transform="matrix(1 0 0 -1 47.7959 11.1973)" fill="#FF0000"/>
<rect width="0.598975" height="0.599901" transform="matrix(1 0 0 -1 47.7959 10.5996)" fill="#FF0000"/>
<rect width="0.598975" height="0.599901" transform="matrix(1 0 0 -1 46 10.5996)" fill="#FF0000"/>
<rect width="0.598975" height="0.599901" transform="matrix(1 0 0 -1 46 11.1973)" fill="#FF0000"/>
<rect width="0.598975" height="0.599901" transform="matrix(1 0 0 -1 46 11.7988)" fill="#FF0000"/>
<rect width="0.598975" height="0.599901" transform="matrix(1 0 0 -1 46.5981 12.3984)" fill="#FF0000"/>
<rect width="0.598975" height="0.599901" transform="matrix(1 0 0 -1 47.1973 12.998)" fill="#FF0000"/>
<rect width="0.598975" height="0.599901" transform="matrix(1 0 0 -1 47.7959 13.5977)" fill="#FF0000"/>
<rect width="0.598975" height="0.599901" transform="matrix(1 0 0 -1 48.396 14.1992)" fill="#FF0000"/>
<rect width="0.598975" height="0.599901" transform="matrix(1 0 0 -1 48.9951 14.7969)" fill="#FF0000"/>
<rect width="0.598975" height="0.599901" transform="matrix(1 0 0 -1 49.5942 14.7969)" fill="#FF0000"/>
<rect width="0.598975" height="0.599901" transform="matrix(1 0 0 -1 50.1929 14.7969)" fill="#FF0000"/>
<rect width="0.598975" height="0.599901" transform="matrix(1 0 0 -1 50.792 14.1992)" fill="#FF0000"/>
<rect width="0.598975" height="0.599901" transform="matrix(1 0 0 -1 51.3901 13.5977)" fill="#FF0000"/>
<rect width="0.598975" height="0.599901" transform="matrix(1 0 0 -1 51.9893 12.998)" fill="#FF0000"/>
<rect width="0.598975" height="0.599901" transform="matrix(1 0 0 -1 52.5894 12.3984)" fill="#FF0000"/>
<rect width="0.598975" height="0.599901" transform="matrix(1 0 0 -1 53.1875 11.7988)" fill="#FF0000"/>
<rect width="0.598975" height="0.599901" transform="matrix(1 0 0 -1 53.1875 11.1973)" fill="#FF0000"/>
<rect width="0.598975" height="0.599901" transform="matrix(1 0 0 -1 53.1875 10.5996)" fill="#FF0000"/>
<rect width="0.598975" height="0.599901" transform="matrix(1 0 0 -1 51.9893 10.5996)" fill="#FF6C6C"/>
<rect width="0.598975" height="0.599901" transform="matrix(1 0 0 -1 51.9893 11.1973)" fill="#FF6C6C"/>
<rect width="0.598975" height="0.599901" transform="matrix(1 0 0 -1 51.9893 11.7988)" fill="#FF6C6C"/>
<rect width="0.598975" height="0.599901" transform="matrix(1 0 0 -1 51.3901 11.7988)" fill="#FF6C6C"/>
<rect width="0.598975" height="0.599901" transform="matrix(1 0 0 -1 51.3901 12.3984)" fill="#FF6C6C"/>
<rect width="0.598975" height="0.599901" transform="matrix(1 0 0 -1 50.792 12.3984)" fill="#FF6C6C"/>
<rect width="0.598975" height="0.599901" transform="matrix(1 0 0 -1 50.792 12.998)" fill="#FF6C6C"/>
<rect width="0.598975" height="0.599901" transform="matrix(1 0 0 -1 50.1929 12.998)" fill="#FF6C6C"/>
<rect width="0.598975" height="0.599901" transform="matrix(1 0 0 -1 50.1929 13.5977)" fill="#FF6C6C"/>
<rect width="0.598975" height="0.599901" transform="matrix(1 0 0 -1 49.5942 13.5977)" fill="#FF6C6C"/>
<rect width="0.598975" height="0.599901" transform="matrix(1 0 0 -1 48.9951 13.5977)" fill="#FF6C6C"/>
<rect width="0.598975" height="0.599901" transform="matrix(1 0 0 -1 48.9951 12.998)" fill="#FF6C6C"/>
<rect width="0.598975" height="0.599901" transform="matrix(1 0 0 -1 48.396 12.998)" fill="#FF6C6C"/>
<rect width="0.598975" height="0.599901" transform="matrix(1 0 0 -1 48.396 12.3984)" fill="#FF6C6C"/>
<rect width="0.598975" height="0.599901" transform="matrix(1 0 0 -1 47.7959 12.3984)" fill="#FF6C6C"/>
<rect width="0.598975" height="0.599901" transform="matrix(1 0 0 -1 47.7959 11.7988)" fill="#FF6C6C"/>
<rect width="0.598975" height="0.599901" transform="matrix(1 0 0 -1 47.1973 11.7988)" fill="#FF6C6C"/>
<rect width="0.598975" height="0.599901" transform="matrix(1 0 0 -1 47.1973 11.1973)" fill="#FF6C6C"/>
<rect width="0.598975" height="0.599901" transform="matrix(1 0 0 -1 47.1973 10.5996)" fill="#FF6C6C"/>
<rect width="0.598975" height="0.599901" transform="matrix(1 0 0 -1 46.5981 10.5996)" fill="#FF6C6C"/>
<rect width="0.598975" height="0.599901" transform="matrix(1 0 0 -1 46.5981 11.1973)" fill="#FF6C6C"/>
<rect width="0.598975" height="0.599901" transform="matrix(1 0 0 -1 46.5981 11.7988)" fill="#FF3737"/>
<rect width="0.598975" height="0.599901" transform="matrix(1 0 0 -1 47.1973 12.3984)" fill="#FF3737"/>
<rect width="0.598975" height="0.599901" transform="matrix(1 0 0 -1 47.7959 12.998)" fill="#FF3737"/>
<rect width="0.598975" height="0.599901" transform="matrix(1 0 0 -1 48.396 13.5977)" fill="#FF3737"/>
<rect width="0.598975" height="0.599901" transform="matrix(1 0 0 -1 48.9951 14.1992)" fill="#FF3737"/>
<rect width="0.598975" height="0.599901" transform="matrix(1 0 0 -1 49.5942 14.1992)" fill="#FF3737"/>
<rect width="0.598975" height="0.599901" transform="matrix(1 0 0 -1 50.1929 14.1992)" fill="#FF3737"/>
<rect width="0.598975" height="0.599901" transform="matrix(1 0 0 -1 50.792 13.5977)" fill="#FF3737"/>
<rect width="0.598975" height="0.599901" transform="matrix(1 0 0 -1 51.3901 12.998)" fill="#FF3737"/>
<rect width="0.598975" height="0.599901" transform="matrix(1 0 0 -1 51.9893 12.3984)" fill="#FF3737"/>
<rect width="0.598975" height="0.599901" transform="matrix(1 0 0 -1 52.5894 11.7988)" fill="#FF3737"/>
<rect width="0.598975" height="0.599901" transform="matrix(1 0 0 -1 52.5894 10.5996)" fill="#FF6C6C"/>
<rect width="0.598975" height="0.599901" transform="matrix(1 0 0 -1 52.5894 11.1973)" fill="#FF6C6C"/>
<rect width="0.598975" height="0.599901" transform="matrix(1 0 0 -1 51.3901 10.5996)" fill="#FF0000"/>
<rect width="0.598975" height="0.599901" transform="matrix(1 0 0 -1 51.3901 11.1973)" fill="#FF0000"/>
<rect width="0.598975" height="0.599901" transform="matrix(1 0 0 -1 50.792 11.1973)" fill="#FFAAAA"/>
<rect width="0.598975" height="0.599901" transform="matrix(1 0 0 -1 50.792 10.5996)" fill="#FFAAAA"/>
<rect width="0.598975" height="0.599901" transform="matrix(1 0 0 -1 50.1929 11.1973)" fill="#FFAAAA"/>
<rect width="0.598975" height="0.599901" transform="matrix(1 0 0 -1 50.1929 10.5996)" fill="#FFAAAA"/>
<rect width="0.598975" height="0.599901" transform="matrix(1 0 0 -1 50.1929 11.7988)" fill="#FFAAAA"/>
<rect width="0.598975" height="0.599901" transform="matrix(1 0 0 -1 49.5942 11.1973)" fill="#FFAAAA"/>
<rect width="0.598975" height="0.599901" transform="matrix(1 0 0 -1 49.5942 10.5996)" fill="#FFAAAA"/>
<rect width="0.598975" height="0.599901" transform="matrix(1 0 0 -1 49.5942 11.7988)" fill="#FFAAAA"/>
<rect width="0.598975" height="0.599901" transform="matrix(1 0 0 -1 49.5942 12.3984)" fill="#FFAAAA"/>
<rect width="0.598975" height="0.599901" transform="matrix(1 0 0 -1 48.9951 11.1973)" fill="#FFAAAA"/>
<rect width="0.598975" height="0.599901" transform="matrix(1 0 0 -1 48.9951 10.5996)" fill="#FFAAAA"/>
<rect width="0.598975" height="0.599901" transform="matrix(1 0 0 -1 48.9951 11.7988)" fill="#FFAAAA"/>
<rect width="0.598975" height="0.599901" transform="matrix(1 0 0 -1 48.396 11.1973)" fill="white"/>
<rect width="0.598975" height="0.599901" transform="matrix(1 0 0 -1 48.396 10.5996)" fill="white"/>
<rect width="0.598975" height="0.599901" transform="matrix(1 0 0 -1 50.792 11.7988)" fill="#FF0000"/>
<rect x="47.7959" y="8.79883" width="0.598975" height="0.599901" fill="#FF0000"/>
<rect x="46" y="8.79883" width="0.598975" height="0.599901" fill="#FF0000"/>
<rect x="53.1875" y="8.79883" width="0.598975" height="0.599901" fill="#FF0000"/>
<rect x="51.9893" y="8.79883" width="0.598975" height="0.599901" fill="#FF6C6C"/>
<rect x="47.1973" y="8.79883" width="0.598975" height="0.599901" fill="#FF6C6C"/>
<rect x="46.5981" y="8.79883" width="0.598975" height="0.599901" fill="#FF6C6C"/>
<rect x="52.5894" y="8.79883" width="0.598975" height="0.599901" fill="#FF6C6C"/>
<rect x="51.3901" y="8.79883" width="0.598975" height="0.599901" fill="#FF0000"/>
<rect x="50.792" y="8.79883" width="0.598975" height="0.599901" fill="#FFAAAA"/>
<rect x="50.1929" y="8.79883" width="0.598975" height="0.599901" fill="#FFAAAA"/>
<rect x="49.5942" y="8.79883" width="0.598975" height="0.599901" fill="#FFAAAA"/>
<rect x="48.9951" y="8.79883" width="0.598975" height="0.599901" fill="#FFAAAA"/>
<rect x="48.396" y="8.79883" width="0.598975" height="0.599901" fill="white"/>
<rect x="49.5942" y="5.79883" width="0.598975" height="0.599901" fill="#FF0000"/>
<rect x="50.1929" y="6.40039" width="0.598975" height="0.599901" fill="#FF0000"/>
<rect x="48.9951" y="6.40039" width="0.598975" height="0.599901" fill="#FF0000"/>
<rect x="48.396" y="6.99805" width="0.598975" height="0.599901" fill="#FF0000"/>
<rect x="47.7959" y="7.59961" width="0.598975" height="0.599901" fill="#FF0000"/>
<rect x="47.7959" y="8.19922" width="0.598975" height="0.599901" fill="#FF0000"/>
<rect x="46" y="8.19922" width="0.598975" height="0.599901" fill="#FF0000"/>
<rect x="46" y="7.59961" width="0.598975" height="0.599901" fill="#FF0000"/>
<rect x="46" y="6.99805" width="0.598975" height="0.599901" fill="#FF0000"/>
<rect x="46.5981" y="6.40039" width="0.598975" height="0.599901" fill="#FF0000"/>
<rect x="47.1973" y="5.79883" width="0.598975" height="0.599901" fill="#FF0000"/>
<rect x="47.7959" y="5.19922" width="0.598975" height="0.599901" fill="#FF0000"/>
<rect x="48.396" y="4.59961" width="0.598975" height="0.599901" fill="#FF0000"/>
<rect x="48.9951" y="4" width="0.598975" height="0.599901" fill="#FF0000"/>
<rect x="49.5942" y="4" width="0.598975" height="0.599901" fill="#FF0000"/>
<rect x="50.1929" y="4" width="0.598975" height="0.599901" fill="#FF0000"/>
<rect x="50.792" y="4.59961" width="0.598975" height="0.599901" fill="#FF0000"/>
<rect x="51.3901" y="5.19922" width="0.598975" height="0.599901" fill="#FF0000"/>
<rect x="51.9893" y="5.79883" width="0.598975" height="0.599901" fill="#FF0000"/>
<rect x="52.5894" y="6.40039" width="0.598975" height="0.599901" fill="#FF0000"/>
<rect x="53.1875" y="6.99805" width="0.598975" height="0.599901" fill="#FF0000"/>
<rect x="53.1875" y="7.59961" width="0.598975" height="0.599901" fill="#FF0000"/>
<rect x="53.1875" y="8.19922" width="0.598975" height="0.599901" fill="#FF0000"/>
<rect x="51.9893" y="8.19922" width="0.598975" height="0.599901" fill="#FF6C6C"/>
<rect x="51.9893" y="7.59961" width="0.598975" height="0.599901" fill="#FF6C6C"/>
<rect x="51.9893" y="6.99805" width="0.598975" height="0.599901" fill="#FF6C6C"/>
<rect x="51.3901" y="6.99805" width="0.598975" height="0.599901" fill="#FF6C6C"/>
<rect x="51.3901" y="6.40039" width="0.598975" height="0.599901" fill="#FF6C6C"/>
<rect x="50.792" y="6.40039" width="0.598975" height="0.599901" fill="#FF6C6C"/>
<rect x="50.792" y="5.79883" width="0.598975" height="0.599901" fill="#FF6C6C"/>
<rect x="50.1929" y="5.79883" width="0.598975" height="0.599901" fill="#FF6C6C"/>
<rect x="50.1929" y="5.19922" width="0.598975" height="0.599901" fill="#FF6C6C"/>
<rect x="49.5942" y="5.19922" width="0.598975" height="0.599901" fill="#FF6C6C"/>
<rect x="48.9951" y="5.19922" width="0.598975" height="0.599901" fill="#FF6C6C"/>
<rect x="48.9951" y="5.79883" width="0.598975" height="0.599901" fill="#FF6C6C"/>
<rect x="48.396" y="5.79883" width="0.598975" height="0.599901" fill="#FF6C6C"/>
<rect x="48.396" y="6.40039" width="0.598975" height="0.599901" fill="#FF6C6C"/>
<rect x="47.7959" y="6.40039" width="0.598975" height="0.599901" fill="#FF6C6C"/>
<rect x="47.7959" y="6.99805" width="0.598975" height="0.599901" fill="#FF6C6C"/>
<rect x="47.1973" y="6.99805" width="0.598975" height="0.599901" fill="#FF6C6C"/>
<rect x="47.1973" y="7.59961" width="0.598975" height="0.599901" fill="#FF6C6C"/>
<rect x="47.1973" y="8.19922" width="0.598975" height="0.599901" fill="#FF6C6C"/>
<rect x="46.5981" y="8.19922" width="0.598975" height="0.599901" fill="#FF6C6C"/>
<rect x="46.5981" y="7.59961" width="0.598975" height="0.599901" fill="#FF6C6C"/>
<rect x="46.5981" y="6.99805" width="0.598975" height="0.599901" fill="#FF3737"/>
<rect x="47.1973" y="6.40039" width="0.598975" height="0.599901" fill="#FF3737"/>
<rect x="47.7959" y="5.79883" width="0.598975" height="0.599901" fill="#FF3737"/>
<rect x="48.396" y="5.19922" width="0.598975" height="0.599901" fill="#FF3737"/>
<rect x="48.9951" y="4.59961" width="0.598975" height="0.599901" fill="#FF3737"/>
<rect x="49.5942" y="4.59961" width="0.598975" height="0.599901" fill="#FF3737"/>
<rect x="50.1929" y="4.59961" width="0.598975" height="0.599901" fill="#FF3737"/>
<rect x="50.792" y="5.19922" width="0.598975" height="0.599901" fill="#FF3737"/>
<rect x="51.3901" y="5.79883" width="0.598975" height="0.599901" fill="#FF3737"/>
<rect x="51.9893" y="6.40039" width="0.598975" height="0.599901" fill="#FF3737"/>
<rect x="52.5894" y="6.99805" width="0.598975" height="0.599901" fill="#FF3737"/>
<rect x="52.5894" y="8.19922" width="0.598975" height="0.599901" fill="#FF6C6C"/>
<rect x="52.5894" y="7.59961" width="0.598975" height="0.599901" fill="#FF6C6C"/>
<rect x="51.3901" y="8.19922" width="0.598975" height="0.599901" fill="#FF0000"/>
<rect x="51.3901" y="7.59961" width="0.598975" height="0.599901" fill="#FF0000"/>
<rect x="50.792" y="7.59961" width="0.598975" height="0.599901" fill="#FFAAAA"/>
<rect x="50.792" y="8.19922" width="0.598975" height="0.599901" fill="#FFAAAA"/>
<rect x="50.1929" y="7.59961" width="0.598975" height="0.599901" fill="#FFAAAA"/>
<rect x="50.1929" y="8.19922" width="0.598975" height="0.599901" fill="#FFAAAA"/>
<rect x="50.1929" y="6.99805" width="0.598975" height="0.599901" fill="#FFAAAA"/>
<rect x="49.5942" y="7.59961" width="0.598975" height="0.599901" fill="#FFAAAA"/>
<rect x="49.5942" y="8.19922" width="0.598975" height="0.599901" fill="#FFAAAA"/>
<rect x="49.5942" y="6.99805" width="0.598975" height="0.599901" fill="#FFAAAA"/>
<rect x="49.5942" y="6.40039" width="0.598975" height="0.599901" fill="#FFAAAA"/>
<rect x="48.9951" y="7.59961" width="0.598975" height="0.599901" fill="#FFAAAA"/>
<rect x="48.9951" y="8.19922" width="0.598975" height="0.599901" fill="#FFAAAA"/>
<rect x="48.9951" y="6.99805" width="0.598975" height="0.599901" fill="#FFAAAA"/>
<rect x="48.396" y="7.59961" width="0.598975" height="0.599901" fill="white"/>
<rect x="48.396" y="8.19922" width="0.598975" height="0.599901" fill="white"/>
<rect x="50.792" y="6.99805" width="0.598975" height="0.599901" fill="#FF0000"/>
</svg>
