<svg width="142" height="20" viewBox="0 0 142 20" fill="none" xmlns="http://www.w3.org/2000/svg">
<path d="M0.256993 4.26934L0.25041 0.25H4.33367H136.483V2.13488V2.38488H136.733H138.647V4.26975V4.51975H138.897H140.81V6.40463V7.7987V12.1313V13.5254V15.6602V19.68H136.733H4.58367V17.7951V17.5451H4.33367H2.42033V15.6602V15.4102H2.17033H0.256994L0.256997 13.5254L0.25699 13.5241L0.25 12.1313V12.1307V7.79932V7.7987L0.256994 6.40589V6.40463L0.256994 4.26975L0.256993 4.26934Z" fill="#00B3FF" fill-opacity="0.13" stroke="#00B3FF" stroke-width="0.5"/>
<path d="M71.68 12.96C71.7147 13.0987 71.732 13.272 71.732 13.48C71.732 13.6793 71.7147 13.8527 71.68 14H70.64C70.6053 13.8527 70.588 13.6793 70.588 13.48C70.588 13.272 70.6053 13.0987 70.64 12.96H70.25C70.2153 12.8127 70.198 12.6393 70.198 12.44C70.198 12.232 70.2153 12.0587 70.25 11.92H69.86C69.8253 11.7727 69.808 11.5993 69.808 11.4C69.808 11.192 69.8253 11.0187 69.86 10.88H68.56C68.5947 11.0187 68.612 11.192 68.612 11.4C68.612 11.5993 68.5947 11.7727 68.56 11.92C68.5947 12.0587 68.612 12.232 68.612 12.44C68.612 12.6393 68.5947 12.8127 68.56 12.96C68.5947 13.0987 68.612 13.272 68.612 13.48C68.612 13.6793 68.5947 13.8527 68.56 14H67.52C67.4853 13.8527 67.468 13.6793 67.468 13.48C67.468 13.272 67.4853 13.0987 67.52 12.96C67.4853 12.8127 67.468 12.6393 67.468 12.44C67.468 12.232 67.4853 12.0587 67.52 11.92C67.4853 11.7727 67.468 11.5993 67.468 11.4C67.468 11.192 67.4853 11.0187 67.52 10.88C67.4853 10.7327 67.468 10.5593 67.468 10.36C67.468 10.152 67.4853 9.97867 67.52 9.84C67.4853 9.69267 67.468 9.51933 67.468 9.32C67.468 9.112 67.4853 8.93867 67.52 8.8C67.4853 8.65267 67.468 8.47933 67.468 8.28C67.468 8.072 67.4853 7.89867 67.52 7.76C67.4853 7.61267 67.468 7.43933 67.468 7.24C67.468 7.032 67.4853 6.85867 67.52 6.72H71.16C71.1947 6.85867 71.212 7.032 71.212 7.24C71.212 7.43933 71.1947 7.61267 71.16 7.76H71.68C71.7147 7.89867 71.732 8.072 71.732 8.28C71.732 8.47933 71.7147 8.65267 71.68 8.8H71.42C71.4547 8.93867 71.472 9.112 71.472 9.32C71.472 9.51933 71.4547 9.69267 71.42 9.84H70.64C70.6747 9.97867 70.692 10.152 70.692 10.36C70.692 10.5593 70.6747 10.7327 70.64 10.88H70.9C70.9347 11.0187 70.952 11.192 70.952 11.4C70.952 11.5993 70.9347 11.7727 70.9 11.92H71.29C71.3247 12.0587 71.342 12.232 71.342 12.44C71.342 12.6393 71.3247 12.8127 71.29 12.96H71.68ZM70.38 9.84C70.3453 9.69267 70.328 9.51933 70.328 9.32C70.328 9.112 70.3453 8.93867 70.38 8.8C70.3453 8.65267 70.328 8.47933 70.328 8.28C70.328 8.072 70.3453 7.89867 70.38 7.76H68.56C68.5947 7.89867 68.612 8.072 68.612 8.28C68.612 8.47933 68.5947 8.65267 68.56 8.8C68.5947 8.93867 68.612 9.112 68.612 9.32C68.612 9.51933 68.5947 9.69267 68.56 9.84H70.38ZM76.9371 12.44C76.9371 12.6393 76.9197 12.8127 76.8851 12.96C76.9197 13.0987 76.9371 13.272 76.9371 13.48C76.9371 13.6793 76.9197 13.8527 76.8851 14H75.8451C75.8104 13.8527 75.7931 13.6793 75.7931 13.48C75.7931 13.272 75.8104 13.0987 75.8451 12.96C75.8104 12.8127 75.7931 12.6393 75.7931 12.44C75.7931 12.232 75.8104 12.0587 75.8451 11.92H73.7651C73.7997 12.0587 73.8171 12.232 73.8171 12.44C73.8171 12.6393 73.7997 12.8127 73.7651 12.96C73.7997 13.0987 73.8171 13.272 73.8171 13.48C73.8171 13.6793 73.7997 13.8527 73.7651 14H72.7251C72.6904 13.8527 72.6731 13.6793 72.6731 13.48C72.6731 13.272 72.6904 13.0987 72.7251 12.96C72.6904 12.8127 72.6731 12.6393 72.6731 12.44C72.6731 12.232 72.6904 12.0587 72.7251 11.92H73.1151C73.0804 11.7727 73.0631 11.5993 73.0631 11.4C73.0631 11.192 73.0804 11.0187 73.1151 10.88C73.0804 10.7327 73.0631 10.5593 73.0631 10.36C73.0631 10.152 73.0804 9.97867 73.1151 9.84H73.3751C73.3404 9.69267 73.3231 9.51933 73.3231 9.32C73.3231 9.112 73.3404 8.93867 73.3751 8.8H73.7651C73.7304 8.65267 73.7131 8.47933 73.7131 8.28C73.7131 8.072 73.7304 7.89867 73.7651 7.76H74.0251C73.9904 7.61267 73.9731 7.43933 73.9731 7.24C73.9731 7.032 73.9904 6.85867 74.0251 6.72H75.5851C75.6197 6.85867 75.6371 7.032 75.6371 7.24C75.6371 7.43933 75.6197 7.61267 75.5851 7.76H75.8451C75.8797 7.89867 75.8971 8.072 75.8971 8.28C75.8971 8.47933 75.8797 8.65267 75.8451 8.8H76.2351C76.2697 8.93867 76.2871 9.112 76.2871 9.32C76.2871 9.51933 76.2697 9.69267 76.2351 9.84H76.4951C76.5297 9.97867 76.5471 10.152 76.5471 10.36C76.5471 10.5593 76.5297 10.7327 76.4951 10.88C76.5297 11.0187 76.5471 11.192 76.5471 11.4C76.5471 11.5993 76.5297 11.7727 76.4951 11.92H76.8851C76.9197 12.0587 76.9371 12.232 76.9371 12.44ZM75.4551 10.88C75.4204 10.7327 75.4031 10.5593 75.4031 10.36C75.4031 10.152 75.4204 9.97867 75.4551 9.84H75.1951C75.1604 9.69267 75.1431 9.51933 75.1431 9.32C75.1431 9.112 75.1604 8.93867 75.1951 8.8H74.4151C74.4497 8.93867 74.4671 9.112 74.4671 9.32C74.4671 9.51933 74.4497 9.69267 74.4151 9.84H74.1551C74.1897 9.97867 74.2071 10.152 74.2071 10.36C74.2071 10.5593 74.1897 10.7327 74.1551 10.88H75.4551ZM82.0902 12.96C82.1248 13.0987 82.1422 13.272 82.1422 13.48C82.1422 13.6793 82.1248 13.8527 82.0902 14H81.0502C81.0155 13.8527 80.9982 13.6793 80.9982 13.48C80.9982 13.272 81.0155 13.0987 81.0502 12.96H80.6602C80.6255 12.8127 80.6082 12.6393 80.6082 12.44C80.6082 12.232 80.6255 12.0587 80.6602 11.92H80.2702C80.2355 11.7727 80.2182 11.5993 80.2182 11.4C80.2182 11.192 80.2355 11.0187 80.2702 10.88H78.9702C79.0048 11.0187 79.0222 11.192 79.0222 11.4C79.0222 11.5993 79.0048 11.7727 78.9702 11.92C79.0048 12.0587 79.0222 12.232 79.0222 12.44C79.0222 12.6393 79.0048 12.8127 78.9702 12.96C79.0048 13.0987 79.0222 13.272 79.0222 13.48C79.0222 13.6793 79.0048 13.8527 78.9702 14H77.9302C77.8955 13.8527 77.8782 13.6793 77.8782 13.48C77.8782 13.272 77.8955 13.0987 77.9302 12.96C77.8955 12.8127 77.8782 12.6393 77.8782 12.44C77.8782 12.232 77.8955 12.0587 77.9302 11.92C77.8955 11.7727 77.8782 11.5993 77.8782 11.4C77.8782 11.192 77.8955 11.0187 77.9302 10.88C77.8955 10.7327 77.8782 10.5593 77.8782 10.36C77.8782 10.152 77.8955 9.97867 77.9302 9.84C77.8955 9.69267 77.8782 9.51933 77.8782 9.32C77.8782 9.112 77.8955 8.93867 77.9302 8.8C77.8955 8.65267 77.8782 8.47933 77.8782 8.28C77.8782 8.072 77.8955 7.89867 77.9302 7.76C77.8955 7.61267 77.8782 7.43933 77.8782 7.24C77.8782 7.032 77.8955 6.85867 77.9302 6.72H81.5702C81.6048 6.85867 81.6222 7.032 81.6222 7.24C81.6222 7.43933 81.6048 7.61267 81.5702 7.76H82.0902C82.1248 7.89867 82.1422 8.072 82.1422 8.28C82.1422 8.47933 82.1248 8.65267 82.0902 8.8H81.8302C81.8648 8.93867 81.8822 9.112 81.8822 9.32C81.8822 9.51933 81.8648 9.69267 81.8302 9.84H81.0502C81.0848 9.97867 81.1022 10.152 81.1022 10.36C81.1022 10.5593 81.0848 10.7327 81.0502 10.88H81.3102C81.3448 11.0187 81.3622 11.192 81.3622 11.4C81.3622 11.5993 81.3448 11.7727 81.3102 11.92H81.7002C81.7348 12.0587 81.7522 12.232 81.7522 12.44C81.7522 12.6393 81.7348 12.8127 81.7002 12.96H82.0902ZM80.7902 9.84C80.7555 9.69267 80.7382 9.51933 80.7382 9.32C80.7382 9.112 80.7555 8.93867 80.7902 8.8C80.7555 8.65267 80.7382 8.47933 80.7382 8.28C80.7382 8.072 80.7555 7.89867 80.7902 7.76H78.9702C79.0048 7.89867 79.0222 8.072 79.0222 8.28C79.0222 8.47933 79.0048 8.65267 78.9702 8.8C79.0048 8.93867 79.0222 9.112 79.0222 9.32C79.0222 9.51933 79.0048 9.69267 78.9702 9.84H80.7902ZM84.6952 10.88C84.7299 11.0187 84.7472 11.192 84.7472 11.4C84.7472 11.5993 84.7299 11.7727 84.6952 11.92C84.7299 12.0587 84.7472 12.232 84.7472 12.44C84.7472 12.6393 84.7299 12.8127 84.6952 12.96H86.7752C86.8099 13.0987 86.8272 13.272 86.8272 13.48C86.8272 13.6793 86.8099 13.8527 86.7752 14H83.6552C83.6206 13.8527 83.6032 13.6793 83.6032 13.48C83.6032 13.272 83.6206 13.0987 83.6552 12.96C83.6206 12.8127 83.6032 12.6393 83.6032 12.44C83.6032 12.232 83.6206 12.0587 83.6552 11.92C83.6206 11.7727 83.6032 11.5993 83.6032 11.4C83.6032 11.192 83.6206 11.0187 83.6552 10.88C83.6206 10.7327 83.6032 10.5593 83.6032 10.36C83.6032 10.152 83.6206 9.97867 83.6552 9.84C83.6206 9.69267 83.6032 9.51933 83.6032 9.32C83.6032 9.112 83.6206 8.93867 83.6552 8.8C83.6206 8.65267 83.6032 8.47933 83.6032 8.28C83.6032 8.072 83.6206 7.89867 83.6552 7.76C83.6206 7.61267 83.6032 7.43933 83.6032 7.24C83.6032 7.032 83.6206 6.85867 83.6552 6.72H86.7752C86.8099 6.85867 86.8272 7.032 86.8272 7.24C86.8272 7.43933 86.8099 7.61267 86.7752 7.76H84.6952C84.7299 7.89867 84.7472 8.072 84.7472 8.28C84.7472 8.47933 84.7299 8.65267 84.6952 8.8C84.7299 8.93867 84.7472 9.112 84.7472 9.32C84.7472 9.51933 84.7299 9.69267 84.6952 9.84H86.7752C86.8099 9.97867 86.8272 10.152 86.8272 10.36C86.8272 10.5593 86.8099 10.7327 86.7752 10.88H84.6952Z" fill="#00B3FF"/>
<rect width="0.597143" height="0.692309" transform="matrix(1 0 0 -1 51.7905 10.9219)" fill="#00B3FF"/>
<rect width="0.597143" height="0.692309" transform="matrix(1 0 0 -1 50 10.9238)" fill="#00B3FF"/>
<rect width="0.597143" height="0.692309" transform="matrix(1 0 0 -1 57.1655 10.9219)" fill="#00B3FF"/>
<rect width="0.597143" height="0.692309" transform="matrix(1 0 0 -1 55.9712 10.9219)" fill="#97E0FF"/>
<rect width="0.597143" height="0.692309" transform="matrix(1 0 0 -1 51.1934 10.9219)" fill="#97E0FF"/>
<rect width="0.597143" height="0.692309" transform="matrix(1 0 0 -1 50.5962 10.9238)" fill="#97E0FF"/>
<rect width="0.597143" height="0.692309" transform="matrix(1 0 0 -1 56.5688 10.9219)" fill="#97E0FF"/>
<rect width="0.597143" height="0.692309" transform="matrix(1 0 0 -1 55.374 10.9219)" fill="#00B3FF"/>
<rect width="0.597143" height="0.692309" transform="matrix(1 0 0 -1 54.7773 10.9219)" fill="#DCF5FF"/>
<rect width="0.597143" height="0.692309" transform="matrix(1 0 0 -1 54.1802 10.9238)" fill="#DCF5FF"/>
<rect width="0.597143" height="0.692309" transform="matrix(1 0 0 -1 53.583 10.9219)" fill="#DCF5FF"/>
<rect width="0.597143" height="0.692309" transform="matrix(1 0 0 -1 52.9858 10.9219)" fill="#DCF5FF"/>
<rect width="0.597143" height="0.692309" transform="matrix(1 0 0 -1 52.3887 10.9219)" fill="white"/>
<rect width="0.597143" height="0.692309" transform="matrix(1 0 0 -1 53.583 14.3848)" fill="#00B3FF"/>
<rect width="0.597143" height="0.692309" transform="matrix(1 0 0 -1 54.1802 13.6914)" fill="#00B3FF"/>
<rect width="0.597143" height="0.692309" transform="matrix(1 0 0 -1 52.9858 13.6914)" fill="#00B3FF"/>
<rect width="0.597143" height="0.692309" transform="matrix(1 0 0 -1 52.3887 13)" fill="#00B3FF"/>
<rect width="0.597143" height="0.692309" transform="matrix(1 0 0 -1 51.7905 12.3066)" fill="#00B3FF"/>
<rect width="0.597143" height="0.692309" transform="matrix(1 0 0 -1 51.7905 11.6152)" fill="#00B3FF"/>
<rect width="0.597143" height="0.692309" transform="matrix(1 0 0 -1 50 11.6152)" fill="#00B3FF"/>
<rect width="0.597143" height="0.692309" transform="matrix(1 0 0 -1 50 12.3066)" fill="#00B3FF"/>
<rect width="0.597143" height="0.692309" transform="matrix(1 0 0 -1 50 13)" fill="#00B3FF"/>
<rect width="0.597143" height="0.692309" transform="matrix(1 0 0 -1 50.5962 13.6914)" fill="#00B3FF"/>
<rect width="0.597143" height="0.692309" transform="matrix(1 0 0 -1 51.1934 14.3848)" fill="#00B3FF"/>
<rect width="0.597143" height="0.692309" transform="matrix(1 0 0 -1 51.7905 15.0762)" fill="#00B3FF"/>
<rect width="0.597143" height="0.692309" transform="matrix(1 0 0 -1 52.3887 15.7695)" fill="#00B3FF"/>
<rect width="0.597143" height="0.692309" transform="matrix(1 0 0 -1 52.9858 16.4609)" fill="#00B3FF"/>
<rect width="0.597143" height="0.692309" transform="matrix(1 0 0 -1 53.583 16.4609)" fill="#00B3FF"/>
<rect width="0.597143" height="0.692309" transform="matrix(1 0 0 -1 54.1802 16.4609)" fill="#00B3FF"/>
<rect width="0.597143" height="0.692309" transform="matrix(1 0 0 -1 54.7773 15.7695)" fill="#00B3FF"/>
<rect width="0.597143" height="0.692309" transform="matrix(1 0 0 -1 55.374 15.0762)" fill="#00B3FF"/>
<rect width="0.597143" height="0.692309" transform="matrix(1 0 0 -1 55.9712 14.3848)" fill="#00B3FF"/>
<rect width="0.597143" height="0.692309" transform="matrix(1 0 0 -1 56.5688 13.6914)" fill="#00B3FF"/>
<rect width="0.597143" height="0.692309" transform="matrix(1 0 0 -1 57.1655 13)" fill="#00B3FF"/>
<rect width="0.597143" height="0.692309" transform="matrix(1 0 0 -1 57.1655 12.3066)" fill="#00B3FF"/>
<rect width="0.597143" height="0.692309" transform="matrix(1 0 0 -1 57.1655 11.6152)" fill="#00B3FF"/>
<rect width="0.597143" height="0.692309" transform="matrix(1 0 0 -1 55.9712 11.6152)" fill="#97E0FF"/>
<rect width="0.597143" height="0.692309" transform="matrix(1 0 0 -1 55.9712 12.3066)" fill="#97E0FF"/>
<rect width="0.597143" height="0.692309" transform="matrix(1 0 0 -1 55.9712 13)" fill="#97E0FF"/>
<rect width="0.597143" height="0.692309" transform="matrix(1 0 0 -1 55.374 13)" fill="#97E0FF"/>
<rect width="0.597143" height="0.692309" transform="matrix(1 0 0 -1 55.374 13.6914)" fill="#97E0FF"/>
<rect width="0.597143" height="0.692309" transform="matrix(1 0 0 -1 54.7773 13.6914)" fill="#97E0FF"/>
<rect width="0.597143" height="0.692309" transform="matrix(1 0 0 -1 54.7773 14.3848)" fill="#97E0FF"/>
<rect width="0.597143" height="0.692309" transform="matrix(1 0 0 -1 54.1802 14.3848)" fill="#97E0FF"/>
<rect width="0.597143" height="0.692309" transform="matrix(1 0 0 -1 54.1802 15.0762)" fill="#97E0FF"/>
<rect width="0.597143" height="0.692309" transform="matrix(1 0 0 -1 53.583 15.0762)" fill="#97E0FF"/>
<rect width="0.597143" height="0.692309" transform="matrix(1 0 0 -1 52.9858 15.0762)" fill="#97E0FF"/>
<rect width="0.597143" height="0.692309" transform="matrix(1 0 0 -1 52.9858 14.3848)" fill="#97E0FF"/>
<rect width="0.597143" height="0.692309" transform="matrix(1 0 0 -1 52.3887 14.3848)" fill="#97E0FF"/>
<rect width="0.597143" height="0.692309" transform="matrix(1 0 0 -1 52.3887 13.6914)" fill="#97E0FF"/>
<rect width="0.597143" height="0.692309" transform="matrix(1 0 0 -1 51.7905 13.6914)" fill="#97E0FF"/>
<rect width="0.597143" height="0.692309" transform="matrix(1 0 0 -1 51.7905 13)" fill="#97E0FF"/>
<rect width="0.597143" height="0.692309" transform="matrix(1 0 0 -1 51.1934 13)" fill="#97E0FF"/>
<rect width="0.597143" height="0.692309" transform="matrix(1 0 0 -1 51.1934 12.3066)" fill="#97E0FF"/>
<rect width="0.597143" height="0.692309" transform="matrix(1 0 0 -1 51.1934 11.6152)" fill="#97E0FF"/>
<rect width="0.597143" height="0.692309" transform="matrix(1 0 0 -1 50.5962 11.6152)" fill="#97E0FF"/>
<rect width="0.597143" height="0.692309" transform="matrix(1 0 0 -1 50.5962 12.3066)" fill="#97E0FF"/>
<rect width="0.597143" height="0.692309" transform="matrix(1 0 0 -1 50.5962 13)" fill="#4ECAFF"/>
<rect width="0.597143" height="0.692309" transform="matrix(1 0 0 -1 51.1934 13.6914)" fill="#4ECAFF"/>
<rect width="0.597143" height="0.692309" transform="matrix(1 0 0 -1 51.7905 14.3848)" fill="#4ECAFF"/>
<rect width="0.597143" height="0.692309" transform="matrix(1 0 0 -1 52.3887 15.0762)" fill="#4ECAFF"/>
<rect width="0.597143" height="0.692309" transform="matrix(1 0 0 -1 52.9858 15.7695)" fill="#4ECAFF"/>
<rect width="0.597143" height="0.692309" transform="matrix(1 0 0 -1 53.583 15.7695)" fill="#4ECAFF"/>
<rect width="0.597143" height="0.692309" transform="matrix(1 0 0 -1 54.1802 15.7695)" fill="#4ECAFF"/>
<rect width="0.597143" height="0.692309" transform="matrix(1 0 0 -1 54.7773 15.0762)" fill="#4ECAFF"/>
<rect width="0.597143" height="0.692309" transform="matrix(1 0 0 -1 55.374 14.3848)" fill="#4ECAFF"/>
<rect width="0.597143" height="0.692309" transform="matrix(1 0 0 -1 55.9712 13.6914)" fill="#4ECAFF"/>
<rect width="0.597143" height="0.692309" transform="matrix(1 0 0 -1 56.5688 13)" fill="#4ECAFF"/>
<rect width="0.597143" height="0.692309" transform="matrix(1 0 0 -1 56.5688 11.6152)" fill="#97E0FF"/>
<rect width="0.597143" height="0.692309" transform="matrix(1 0 0 -1 56.5688 12.3066)" fill="#97E0FF"/>
<rect width="0.597143" height="0.692309" transform="matrix(1 0 0 -1 55.374 11.6152)" fill="#00B3FF"/>
<rect width="0.597143" height="0.692309" transform="matrix(1 0 0 -1 55.374 12.3066)" fill="#00B3FF"/>
<rect width="0.597143" height="0.692309" transform="matrix(1 0 0 -1 54.7773 12.3066)" fill="#DCF5FF"/>
<rect width="0.597143" height="0.692309" transform="matrix(1 0 0 -1 54.7773 11.6152)" fill="#DCF5FF"/>
<rect width="0.597143" height="0.692309" transform="matrix(1 0 0 -1 54.1802 12.3066)" fill="#DCF5FF"/>
<rect width="0.597143" height="0.692309" transform="matrix(1 0 0 -1 54.1802 11.6152)" fill="#DCF5FF"/>
<rect width="0.597143" height="0.692309" transform="matrix(1 0 0 -1 54.1802 13)" fill="#DCF5FF"/>
<rect width="0.597143" height="0.692309" transform="matrix(1 0 0 -1 53.583 12.3066)" fill="#DCF5FF"/>
<rect width="0.597143" height="0.692309" transform="matrix(1 0 0 -1 53.583 11.6152)" fill="#DCF5FF"/>
<rect width="0.597143" height="0.692309" transform="matrix(1 0 0 -1 53.583 13)" fill="#DCF5FF"/>
<rect width="0.597143" height="0.692309" transform="matrix(1 0 0 -1 53.583 13.6914)" fill="#DCF5FF"/>
<rect width="0.597143" height="0.692309" transform="matrix(1 0 0 -1 52.9858 12.3066)" fill="#DCF5FF"/>
<rect width="0.597143" height="0.692309" transform="matrix(1 0 0 -1 52.9858 11.6152)" fill="#DCF5FF"/>
<rect width="0.597143" height="0.692309" transform="matrix(1 0 0 -1 52.9858 13)" fill="#DCF5FF"/>
<rect width="0.597143" height="0.692309" transform="matrix(1 0 0 -1 52.3887 12.3066)" fill="white"/>
<rect width="0.597143" height="0.692309" transform="matrix(1 0 0 -1 52.3887 11.6152)" fill="white"/>
<rect width="0.597143" height="0.692309" transform="matrix(1 0 0 -1 54.7773 13)" fill="#00B3FF"/>
<rect x="51.7905" y="9.53906" width="0.597143" height="0.692309" fill="#00B3FF"/>
<rect x="50" y="9.53906" width="0.597143" height="0.692309" fill="#00B3FF"/>
<rect x="57.1655" y="9.53906" width="0.597143" height="0.692309" fill="#00B3FF"/>
<rect x="55.9712" y="9.53906" width="0.597143" height="0.692309" fill="#97E0FF"/>
<rect x="51.1934" y="9.53906" width="0.597143" height="0.692309" fill="#97E0FF"/>
<rect x="50.5962" y="9.53906" width="0.597143" height="0.692309" fill="#97E0FF"/>
<rect x="56.5688" y="9.53906" width="0.597143" height="0.692309" fill="#97E0FF"/>
<rect x="55.374" y="9.53906" width="0.597143" height="0.692309" fill="#00B3FF"/>
<rect x="54.7773" y="9.53906" width="0.597143" height="0.692309" fill="#DCF5FF"/>
<rect x="54.1802" y="9.53906" width="0.597143" height="0.692309" fill="#DCF5FF"/>
<rect x="53.583" y="9.53906" width="0.597143" height="0.692309" fill="#DCF5FF"/>
<rect x="52.9858" y="9.53906" width="0.597143" height="0.692309" fill="#DCF5FF"/>
<rect x="52.3887" y="9.53906" width="0.597143" height="0.692309" fill="white"/>
<rect x="53.583" y="6.07617" width="0.597143" height="0.692309" fill="#00B3FF"/>
<rect x="54.1802" y="6.76953" width="0.597143" height="0.692309" fill="#00B3FF"/>
<rect x="52.9858" y="6.76953" width="0.597143" height="0.692309" fill="#00B3FF"/>
<rect x="52.3887" y="7.46094" width="0.597143" height="0.692309" fill="#00B3FF"/>
<rect x="51.7905" y="8.1543" width="0.597143" height="0.692309" fill="#00B3FF"/>
<rect x="51.7905" y="8.8457" width="0.597143" height="0.692309" fill="#00B3FF"/>
<rect x="50" y="8.8457" width="0.597143" height="0.692309" fill="#00B3FF"/>
<rect x="50" y="8.1543" width="0.597143" height="0.692309" fill="#00B3FF"/>
<rect x="50" y="7.46094" width="0.597143" height="0.692309" fill="#00B3FF"/>
<rect x="50.5962" y="6.76953" width="0.597143" height="0.692309" fill="#00B3FF"/>
<rect x="51.1934" y="6.07617" width="0.597143" height="0.692309" fill="#00B3FF"/>
<rect x="51.7905" y="5.38477" width="0.597143" height="0.692309" fill="#00B3FF"/>
<rect x="52.3887" y="4.69141" width="0.597143" height="0.692309" fill="#00B3FF"/>
<rect x="52.9858" y="4" width="0.597143" height="0.692309" fill="#00B3FF"/>
<rect x="53.583" y="4" width="0.597143" height="0.692309" fill="#00B3FF"/>
<rect x="54.1802" y="4" width="0.597143" height="0.692309" fill="#00B3FF"/>
<rect x="54.7773" y="4.69141" width="0.597143" height="0.692309" fill="#00B3FF"/>
<rect x="55.374" y="5.38477" width="0.597143" height="0.692309" fill="#00B3FF"/>
<rect x="55.9712" y="6.07617" width="0.597143" height="0.692309" fill="#00B3FF"/>
<rect x="56.5688" y="6.76953" width="0.597143" height="0.692309" fill="#00B3FF"/>
<rect x="57.1655" y="7.46094" width="0.597143" height="0.692309" fill="#00B3FF"/>
<rect x="57.1655" y="8.1543" width="0.597143" height="0.692309" fill="#00B3FF"/>
<rect x="57.1655" y="8.8457" width="0.597143" height="0.692309" fill="#00B3FF"/>
<rect x="55.9712" y="8.8457" width="0.597143" height="0.692309" fill="#97E0FF"/>
<rect x="55.9712" y="8.1543" width="0.597143" height="0.692309" fill="#97E0FF"/>
<rect x="55.9712" y="7.46094" width="0.597143" height="0.692309" fill="#97E0FF"/>
<rect x="55.374" y="7.46094" width="0.597143" height="0.692309" fill="#97E0FF"/>
<rect x="55.374" y="6.76953" width="0.597143" height="0.692309" fill="#97E0FF"/>
<rect x="54.7773" y="6.76953" width="0.597143" height="0.692309" fill="#97E0FF"/>
<rect x="54.7773" y="6.07617" width="0.597143" height="0.692309" fill="#97E0FF"/>
<rect x="54.1802" y="6.07617" width="0.597143" height="0.692309" fill="#97E0FF"/>
<rect x="54.1802" y="5.38477" width="0.597143" height="0.692309" fill="#97E0FF"/>
<rect x="53.583" y="5.38477" width="0.597143" height="0.692309" fill="#97E0FF"/>
<rect x="52.9858" y="5.38477" width="0.597143" height="0.692309" fill="#97E0FF"/>
<rect x="52.9858" y="6.07617" width="0.597143" height="0.692309" fill="#97E0FF"/>
<rect x="52.3887" y="6.07617" width="0.597143" height="0.692309" fill="#97E0FF"/>
<rect x="52.3887" y="6.76953" width="0.597143" height="0.692309" fill="#97E0FF"/>
<rect x="51.7905" y="6.76953" width="0.597143" height="0.692309" fill="#97E0FF"/>
<rect x="51.7905" y="7.46094" width="0.597143" height="0.692309" fill="#97E0FF"/>
<rect x="51.1934" y="7.46094" width="0.597143" height="0.692309" fill="#97E0FF"/>
<rect x="51.1934" y="8.1543" width="0.597143" height="0.692309" fill="#97E0FF"/>
<rect x="51.1934" y="8.8457" width="0.597143" height="0.692309" fill="#97E0FF"/>
<rect x="50.5962" y="8.8457" width="0.597143" height="0.692309" fill="#97E0FF"/>
<rect x="50.5962" y="8.1543" width="0.597143" height="0.692309" fill="#97E0FF"/>
<rect x="50.5962" y="7.46094" width="0.597143" height="0.692309" fill="#4ECAFF"/>
<rect x="51.1934" y="6.76953" width="0.597143" height="0.692309" fill="#4ECAFF"/>
<rect x="51.7905" y="6.07617" width="0.597143" height="0.692309" fill="#4ECAFF"/>
<rect x="52.3887" y="5.38477" width="0.597143" height="0.692309" fill="#4ECAFF"/>
<rect x="52.9858" y="4.69141" width="0.597143" height="0.692309" fill="#4ECAFF"/>
<rect x="53.583" y="4.69141" width="0.597143" height="0.692309" fill="#4ECAFF"/>
<rect x="54.1802" y="4.69141" width="0.597143" height="0.692309" fill="#4ECAFF"/>
<rect x="54.7773" y="5.38477" width="0.597143" height="0.692309" fill="#4ECAFF"/>
<rect x="55.374" y="6.07617" width="0.597143" height="0.692309" fill="#4ECAFF"/>
<rect x="55.9712" y="6.76953" width="0.597143" height="0.692309" fill="#4ECAFF"/>
<rect x="56.5688" y="7.46094" width="0.597143" height="0.692309" fill="#4ECAFF"/>
<rect x="56.5688" y="8.8457" width="0.597143" height="0.692309" fill="#97E0FF"/>
<rect x="56.5688" y="8.1543" width="0.597143" height="0.692309" fill="#97E0FF"/>
<rect x="55.374" y="8.8457" width="0.597143" height="0.692309" fill="#00B3FF"/>
<rect x="55.374" y="8.1543" width="0.597143" height="0.692309" fill="#00B3FF"/>
<rect x="54.7773" y="8.1543" width="0.597143" height="0.692309" fill="#DCF5FF"/>
<rect x="54.7773" y="8.8457" width="0.597143" height="0.692309" fill="#DCF5FF"/>
<rect x="54.1802" y="8.1543" width="0.597143" height="0.692309" fill="#DCF5FF"/>
<rect x="54.1802" y="8.8457" width="0.597143" height="0.692309" fill="#DCF5FF"/>
<rect x="54.1802" y="7.46094" width="0.597143" height="0.692309" fill="#DCF5FF"/>
<rect x="53.583" y="8.1543" width="0.597143" height="0.692309" fill="#DCF5FF"/>
<rect x="53.583" y="8.8457" width="0.597143" height="0.692309" fill="#DCF5FF"/>
<rect x="53.583" y="7.46094" width="0.597143" height="0.692309" fill="#DCF5FF"/>
<rect x="53.583" y="6.76953" width="0.597143" height="0.692309" fill="#DCF5FF"/>
<rect x="52.9858" y="8.1543" width="0.597143" height="0.692309" fill="#DCF5FF"/>
<rect x="52.9858" y="8.8457" width="0.597143" height="0.692309" fill="#DCF5FF"/>
<rect x="52.9858" y="7.46094" width="0.597143" height="0.692309" fill="#DCF5FF"/>
<rect x="52.3887" y="8.1543" width="0.597143" height="0.692309" fill="white"/>
<rect x="52.3887" y="8.8457" width="0.597143" height="0.692309" fill="white"/>
<rect x="54.7773" y="7.46094" width="0.597143" height="0.692309" fill="#00B3FF"/>
</svg>
