<svg width="68" height="116" viewBox="0 0 68 116" fill="none" xmlns="http://www.w3.org/2000/svg">
<path d="M1.80816 57.9827C-2.35246 89.5919 6.88413 115.295 22.6113 115.458C38.3384 115.621 54.7313 90.0807 59.0167 58.4308C63.3021 26.7809 53.8991 1.11873 38.2136 0.99653C22.5281 0.87433 6.05199 26.4143 1.80816 57.9827Z" fill="black"/>
<path d="M59.0823 62.3871C63.9236 34.6003 58.1344 10.4525 46.1518 8.4515C34.1693 6.45046 20.5309 27.3539 15.6897 55.1407C10.8484 82.9275 16.6376 107.075 28.6201 109.076C40.6027 111.077 54.2411 90.1739 59.0823 62.3871Z" fill="url(#paint0_linear_1305_1459)"/>
<path d="M28.9358 100.998C23.9431 95.4179 20.1985 80.3872 23.1525 59.4095C26.8971 32.5661 39.0877 13.7472 47.7002 13.625C48.6604 13.6485 49.6015 13.893 50.4472 14.3388C51.293 14.7847 52.0195 15.4193 52.5681 16.1912C57.5609 21.7717 61.2638 36.8024 58.3514 57.7801C54.69 83.8496 42.4162 103.442 33.8453 103.565C32.8773 103.551 31.9267 103.311 31.0727 102.864C30.2187 102.418 29.4861 101.778 28.9358 100.998ZM57.1448 57.6172C60.0156 37.006 56.4791 22.342 51.6528 16.8837C51.216 16.2521 50.6354 15.7284 49.9567 15.3538C49.2781 14.9791 48.5199 14.7638 47.7418 14.7248C39.4206 14.7248 27.8957 33.9917 24.3591 59.5317C21.4467 80.1428 25.0248 94.8069 29.8511 100.265C30.2807 100.904 30.8596 101.432 31.5398 101.808C32.22 102.183 32.9819 102.395 33.7621 102.424C41.7505 102.424 53.4002 83.2793 56.9784 57.7801L57.1448 57.6172Z" fill="#FF0657"/>
<path style="mix-blend-mode:screen" d="M27.5618 59.7336C30.6823 37.3709 41.167 19.9777 48.0737 19.8555C48.4897 19.8555 49.6547 19.8555 51.1941 21.607C55.3547 26.3728 58.6 39.4483 56.0205 57.7784C53.4409 76.1084 46.9503 88.6544 41.2502 94.4385C42.6798 91.334 43.6332 88.0398 44.0795 84.6625C45.2414 79.9255 44.5747 74.9352 42.2072 70.6502C42.0716 70.4572 41.892 70.2979 41.6825 70.1847C41.4731 70.0716 41.2396 70.0078 41.0006 69.9984C38.3378 69.9984 34.302 76.7602 33.0954 85.3957C32.3822 89.2876 32.5958 93.2882 33.7195 97.0862C33.2233 96.769 32.7752 96.3851 32.3881 95.9457C28.1443 91.1391 24.9822 78.1044 27.5618 59.7336Z" fill="url(#paint1_linear_1305_1459)"/>
<path d="M40.0389 72.7165C41.4951 72.7165 44.1995 68.3173 44.99 61.5556C45.7121 58.1528 45.3039 54.6131 43.8251 51.4537C43.4506 50.9649 43.1594 50.9648 43.0761 50.9648C41.3703 50.9648 38.9155 55.8529 38.0834 62.0851C37.3522 65.5009 37.7605 69.0563 39.2484 72.2277C39.6228 72.7165 39.9141 72.7165 39.9973 72.7165H40.0389Z" fill="black"/>
<path d="M38.0836 62.0847C38.4196 58.9922 39.3215 55.9843 40.7464 53.2048C40.9496 53.0384 41.1932 52.9261 41.4536 52.8789C41.4536 52.8789 41.8281 52.8789 42.1609 53.327C43.5193 56.1885 43.8987 59.4026 43.2427 62.492C43.1164 66.097 41.7533 69.5552 39.3733 72.3088C37.8253 69.127 37.3727 65.5396 38.0836 62.0847Z" fill="#FF0000"/>
<defs>
<linearGradient id="paint0_linear_1305_1459" x1="58.7786" y1="7.28827" x2="14.6288" y2="140.068" gradientUnits="userSpaceOnUse">
<stop stop-color="#364665"/>
<stop offset="0.1" stop-color="#364665"/>
<stop offset="0.23" stop-color="#364665"/>
<stop offset="0.4" stop-color="#364665"/>
<stop offset="0.59" stop-color="#364665"/>
<stop offset="0.67" stop-color="#596B89"/>
<stop offset="0.72" stop-color="#364665"/>
<stop offset="0.78" stop-color="#364665"/>
<stop offset="0.869792" stop-color="#364665"/>
<stop offset="0.92" stop-color="#364665"/>
<stop offset="0.9899" stop-color="#8B9BB8"/>
<stop offset="0.99" stop-color="#364665"/>
</linearGradient>
<linearGradient id="paint1_linear_1305_1459" x1="50.9029" y1="11.4644" x2="36.9653" y2="87.2138" gradientUnits="userSpaceOnUse">
<stop offset="0.04" stop-color="#596B89"/>
<stop offset="0.99" stop-color="#020202"/>
<stop offset="1"/>
</linearGradient>
</defs>
</svg>
