<svg width="68" height="116" viewBox="0 0 68 116" fill="none" xmlns="http://www.w3.org/2000/svg">
<path d="M66.2721 57.9623C70.923 89.5827 60.5981 115.295 43.0177 115.458C25.4374 115.621 6.92693 90.0717 2.27605 58.4512C-2.37483 26.8308 7.99663 1.11878 25.5304 0.996531C43.0643 0.874287 61.5282 26.3826 66.2721 57.9623Z" fill="black"/>
<path d="M51.4818 59.0212C55.8536 86.8929 48.1796 109.345 34.413 109.182C20.6464 109.019 5.94966 86.3224 1.57783 58.4507C-2.79399 30.5791 4.87995 8.12695 18.6466 8.28994C32.4132 8.45294 47.1099 31.1496 51.4818 59.0212Z" fill="url(#paint0_linear_1305_1451)"/>
<path d="M30.7388 103.722C21.158 103.722 7.48437 83.9996 3.34509 57.9209C0.0894771 36.9356 4.22876 21.8996 9.80981 16.3171C10.423 15.5449 11.2352 14.9101 12.1806 14.4641C13.126 14.0181 14.178 13.7735 15.2513 13.75C24.8787 13.75 38.5057 32.6979 42.738 59.5508C45.9936 80.536 41.8078 95.5721 36.2268 101.155C35.6117 101.935 34.7927 102.575 33.8381 103.021C32.8834 103.468 31.8208 103.708 30.7388 103.722ZM30.7388 102.54C31.611 102.511 32.4626 102.299 33.223 101.924C33.9833 101.548 34.6304 101.019 35.1106 100.38C40.5056 95.0016 44.4123 80.3323 41.2962 59.6323C37.2965 34.124 24.181 14.8095 15.1583 14.8095C14.2806 14.8423 13.4238 15.0547 12.6565 15.4297C11.8893 15.8048 11.2329 16.3319 10.74 16.9691C5.39148 22.3478 1.43823 37.0171 4.60083 57.7171C8.60058 83.2662 21.6695 102.418 30.6923 102.54H30.7388Z" fill="#FF0053"/>
<path style="mix-blend-mode:screen" d="M37.4823 59.7165C33.9941 37.3459 22.2739 19.9465 14.5534 19.8242C14.1349 19.8242 12.7861 19.8242 11.0653 21.5764C6.4144 26.3439 2.78671 39.424 5.67025 57.7606C8.5538 76.0972 15.8092 88.6476 22.1809 94.4338C20.5828 91.3282 19.5171 88.0328 19.0183 84.6543C17.7194 79.9156 18.4647 74.9235 21.1112 70.637C21.2627 70.444 21.4635 70.2846 21.6976 70.1714C21.9318 70.0582 22.1928 69.9944 22.4599 69.985C25.4365 69.985 29.9943 76.7492 31.3431 85.3877C32.1071 89.2851 31.8527 93.2836 30.599 97.0824C31.1536 96.7651 31.6546 96.381 32.0872 95.9415C36.8311 91.1332 40.3658 78.0939 37.4823 59.7165Z" fill="url(#paint1_linear_1305_1451)"/>
<path d="M23.0784 69.6344C21.4041 69.6344 18.4275 65.2337 17.4973 58.4695C16.6902 55.0655 17.1465 51.5246 18.7996 48.364C19.2182 47.875 19.5437 47.875 19.6367 47.875C21.5436 47.875 24.2876 52.7648 25.2178 58.9992C26.0352 62.4162 25.5787 65.9729 23.9156 69.1455C23.497 69.6344 23.1714 69.6344 23.0784 69.6344Z" fill="black"/>
<path d="M25.2187 58.9967C24.8987 55.9299 23.9204 52.9437 22.3351 50.1951C22.108 50.0287 21.8356 49.9164 21.5445 49.8691C21.5445 49.8691 21.1259 49.8691 20.7538 50.3174C19.2606 53.1861 18.8375 56.3942 19.5446 59.4857C19.707 63.0881 21.2282 66.5417 23.8699 69.306C25.5893 66.09 26.0629 62.4701 25.2187 58.9967Z" fill="#FF0000"/>
<defs>
<linearGradient id="paint0_linear_1305_1451" x1="6.13569" y1="6.33404" x2="46.4549" y2="141.218" gradientUnits="userSpaceOnUse">
<stop stop-color="#364665"/>
<stop offset="0.1" stop-color="#364665"/>
<stop offset="0.23" stop-color="#364665"/>
<stop offset="0.322917" stop-color="#364665"/>
<stop offset="0.536458" stop-color="#596B89"/>
<stop offset="0.67" stop-color="#364665"/>
<stop offset="0.72" stop-color="#364665"/>
<stop offset="0.78" stop-color="#364665"/>
<stop offset="0.85" stop-color="#364665"/>
<stop offset="0.92" stop-color="#364665"/>
<stop offset="0.9899" stop-color="#364665"/>
<stop offset="0.99" stop-color="#364665"/>
</linearGradient>
<linearGradient id="paint1_linear_1305_1451" x1="11.3908" y1="11.4301" x2="23.9865" y2="87.7073" gradientUnits="userSpaceOnUse">
<stop offset="0.04" stop-color="#596B89"/>
<stop offset="0.99" stop-color="#020202"/>
<stop offset="1"/>
</linearGradient>
</defs>
</svg>
